<svg width="18" height="19" viewBox="0 0 18 19" fill="none" xmlns="http://www.w3.org/2000/svg">
<path d="M14.385 13.954V11.615C14.385 11.5077 14.3477 11.4167 14.273 11.342C14.199 11.268 14.108 11.231 14 11.231C13.892 11.231 13.801 11.268 13.727 11.342C13.6523 11.4167 13.615 11.5077 13.615 11.615V13.935C13.615 14.0423 13.6337 14.1447 13.671 14.242C13.7083 14.3393 13.7707 14.4317 13.858 14.519L15.402 16.063C15.476 16.1377 15.5637 16.1783 15.665 16.185C15.7663 16.1917 15.8607 16.151 15.948 16.063C16.0227 15.989 16.06 15.898 16.06 15.79C16.06 15.6827 16.0227 15.5917 15.948 15.517L14.385 13.954ZM1.615 16C1.16833 16 0.787333 15.8427 0.472 15.528C0.157333 15.2133 0 14.8323 0 14.385V1.615C0 1.16833 0.157333 0.787333 0.472 0.472C0.786667 0.157333 1.16767 0 1.615 0H14.385C14.8317 0 15.2127 0.157333 15.528 0.472C15.8427 0.786667 16 1.16767 16 1.615V7.565C15.8247 7.505 15.6567 7.456 15.496 7.418C15.336 7.38067 15.1707 7.34333 15 7.306V1.616C15 1.462 14.936 1.32067 14.808 1.192C14.6793 1.064 14.5383 1 14.385 1H1.615C1.46167 1 1.32067 1.064 1.192 1.192C1.064 1.32067 1 1.46167 1 1.615V14.385C1 14.5383 1.064 14.6793 1.192 14.808C1.32067 14.936 1.46167 15 1.615 15H7.281C7.305 15.1867 7.336 15.3603 7.374 15.521C7.412 15.681 7.461 15.8407 7.521 16H1.615ZM1 14V15V1V7.306V7.231V14ZM3.5 11.77C3.5 11.912 3.54767 12.0307 3.643 12.126C3.739 12.2213 3.858 12.269 4 12.269H7.46C7.49667 12.0983 7.54667 11.933 7.61 11.773L7.81 11.269H4C3.858 11.269 3.739 11.317 3.643 11.413C3.54767 11.5083 3.5 11.627 3.5 11.769V11.77ZM3.5 8C3.5 8.142 3.54767 8.261 3.643 8.357C3.739 8.45233 3.858 8.5 4 8.5H10.08C10.4087 8.26933 10.732 8.07367 11.05 7.913C11.3693 7.753 11.7117 7.62767 12.077 7.537C12.0037 7.51633 11.9203 7.505 11.827 7.503C11.7337 7.501 11.6503 7.5 11.577 7.5H4C3.858 7.5 3.739 7.54767 3.643 7.643C3.54767 7.739 3.5 7.858 3.5 8ZM3.5 4.23C3.5 4.37267 3.54767 4.49167 3.643 4.587C3.739 4.683 3.858 4.731 4 4.731H12C12.142 4.731 12.261 4.683 12.357 4.587C12.4523 4.49167 12.5 4.373 12.5 4.231C12.5 4.08833 12.4523 3.96933 12.357 3.874C12.261 3.77867 12.142 3.731 12 3.731H4C3.858 3.731 3.739 3.77867 3.643 3.874C3.54767 3.96933 3.5 4.08833 3.5 4.231V4.23ZM14 18.116C12.886 18.116 11.9407 17.728 11.164 16.952C10.3873 16.176 9.99933 15.2303 10 14.115C10 13.0017 10.388 12.0567 11.164 11.28C11.94 10.5033 12.8853 10.115 14 10.115C15.114 10.115 16.0593 10.5033 16.836 11.28C17.6127 12.0567 18.0007 13.0017 18 14.115C18 15.2297 17.612 16.175 16.836 16.951C16.0587 17.727 15.1133 18.116 14 18.116Z" fill="#EE82EE"/>
</svg>
