<svg width="25" height="26" viewBox="0 0 25 26" fill="none" xmlns="http://www.w3.org/2000/svg">
<path d="M4.12848 4.18306C4.08355 3.5788 4.28045 2.98144 4.67588 2.52233C5.07132 2.06322 5.6329 1.77997 6.23715 1.73486L20.7392 0.654322C21.3435 0.60939 21.9408 0.806293 22.3999 1.20173C22.859 1.59716 23.1423 2.15875 23.1874 2.76299L24.2679 17.265C24.3021 17.8632 24.0999 18.4509 23.7049 18.9015C23.31 19.3521 22.7539 19.6295 22.1563 19.674C21.5588 19.7185 20.9677 19.5266 20.5104 19.1395C20.053 18.7524 19.766 18.2012 19.7111 17.6046L18.9122 8.75253L4.74501 25.2008C4.3495 25.66 3.78777 25.9433 3.1834 25.9883C2.57903 26.0334 1.98152 25.8365 1.52233 25.441C1.06313 25.0454 0.779861 24.4837 0.73483 23.8793C0.689799 23.275 0.886696 22.6775 1.28221 22.2183L15.4494 5.76997L6.57668 6.29173C5.97242 6.33666 5.37506 6.13976 4.91595 5.74432C4.45685 5.34889 4.17359 4.7873 4.12848 4.18306Z" fill="white"/>
</svg>
