<svg width="209" height="281" viewBox="0 0 209 281" fill="none" xmlns="http://www.w3.org/2000/svg">
<rect y="3.315" width="209" height="246.081" rx="16.8548" fill="#EE82EE"/>
<path d="M32.762 12.9158L32.7801 12.8935C34.568 10.6903 36.9685 9.06605 39.6785 8.22562C42.3885 7.38518 45.2868 7.36622 48.0076 8.17113C50.7284 8.97604 53.1498 10.5688 54.9664 12.7483C56.783 14.9279 57.9134 17.5967 58.2149 20.418C59.9364 20.8089 61.5164 21.668 62.7803 22.9005C64.0441 24.1331 64.9426 25.691 65.3766 27.4021C65.8105 29.1133 65.7629 30.9111 65.2392 32.597C64.7154 34.2828 63.7358 35.791 62.4085 36.955C62.7221 37.2617 62.9691 37.6298 63.1341 38.0362C63.2992 38.4426 63.3786 38.8787 63.3676 39.3172C63.3566 39.7557 63.2553 40.1872 63.0701 40.5848C62.8848 40.9824 62.6197 41.3375 62.2911 41.6281C55.702 47.4577 49.4696 49.4743 43.5969 47.6844L42.2453 49.3499C41.4452 50.3359 40.2861 50.9636 39.0231 51.095C37.7601 51.2263 36.4967 50.8506 35.5107 50.0505L25.5972 42.0051C24.6113 41.2049 23.9835 40.0459 23.8522 38.7829C23.7208 37.5199 24.0965 36.2565 24.8967 35.2705L26.2483 33.605C23.288 28.2265 23.9787 21.7125 28.3273 14.0646C28.5387 13.6937 28.8223 13.369 29.1614 13.1096C29.5004 12.8503 29.8881 12.6615 30.3014 12.5547C30.7147 12.4478 31.1452 12.4249 31.5675 12.4873C31.9898 12.5498 32.3953 12.6963 32.76 12.9183L32.762 12.9158ZM35.2585 14.9048L37.7369 16.9162C39.0705 15.2729 41.0022 14.2267 43.1072 14.0077C45.2122 13.7888 47.3179 14.415 48.9612 15.7486C50.6045 17.0822 51.6506 19.0139 51.8696 21.1189C52.0886 23.2239 51.4624 25.3296 50.1288 26.9729L52.6072 28.9842C54.4742 26.6836 55.3509 23.7356 55.0443 20.7887C54.7378 17.8417 53.2731 15.1372 50.9725 13.2702C48.672 11.4031 45.7239 10.5265 42.777 10.833C39.83 11.1396 37.1255 12.6042 35.2585 14.9048ZM40.2153 18.9275L47.6504 24.9615C48.4506 23.9756 48.8263 22.7121 48.6949 21.4492C48.5635 20.1862 47.9358 19.0271 46.9498 18.227C45.9639 17.4268 44.7004 17.0511 43.4375 17.1824C42.1745 17.3138 41.0154 17.9415 40.2153 18.9275ZM57.2318 32.7374L59.8862 34.8915C60.6677 34.311 61.3063 33.5596 61.7535 32.6948C62.2007 31.83 62.4445 30.8746 62.4665 29.9012C62.4885 28.9279 62.2879 27.9624 61.8803 27.0783C61.4726 26.1942 60.8684 25.4149 60.1139 24.7996C59.5191 24.3169 58.8695 23.9624 58.1892 23.7268C58.0567 24.7867 57.8031 25.8387 57.435 26.8596C58.0021 27.1256 58.4785 27.5522 58.8053 28.0866C59.132 28.621 59.2947 29.2396 59.2731 29.8655C59.2514 30.4915 59.0464 31.0974 58.6836 31.6079C58.3207 32.1184 57.8159 32.5112 57.2318 32.7374ZM40.7726 46.0994L28.3807 36.0427L27.375 37.2818C27.1083 37.6105 26.9831 38.0316 27.0269 38.4526C27.0707 38.8736 27.2799 39.26 27.6086 39.5267L37.5221 47.5721C37.8507 47.8388 38.2719 47.964 38.6929 47.9202C39.1139 47.8765 39.5002 47.6672 39.7669 47.3386L40.7726 46.0994ZM29.5197 32.8563L43.6564 44.329C48.6128 46.255 54.0015 44.7006 60.1772 39.2385L31.1009 15.6414C27.0268 22.8091 26.6147 28.4023 29.5197 32.8563Z" fill="white"/>
<path d="M133.309 12.9158L133.327 12.8935C135.115 10.6903 137.515 9.06605 140.225 8.22562C142.935 7.38518 145.834 7.36622 148.554 8.17113C151.275 8.97604 153.697 10.5688 155.513 12.7483C157.33 14.9279 158.46 17.5967 158.762 20.418C160.483 20.8089 162.063 21.668 163.327 22.9005C164.591 24.1331 165.49 25.691 165.923 27.4021C166.357 29.1133 166.31 30.9111 165.786 32.597C165.262 34.2828 164.283 35.791 162.955 36.955C163.269 37.2617 163.516 37.6298 163.681 38.0362C163.846 38.4426 163.926 38.8787 163.914 39.3172C163.903 39.7557 163.802 40.1872 163.617 40.5848C163.432 40.9824 163.167 41.3375 162.838 41.6281C156.249 47.4577 150.017 49.4743 144.144 47.6844L142.792 49.3499C141.992 50.3359 140.833 50.9636 139.57 51.095C138.307 51.2263 137.044 50.8506 136.058 50.0505L126.144 42.0051C125.158 41.2049 124.53 40.0459 124.399 38.7829C124.268 37.5199 124.643 36.2565 125.444 35.2705L126.795 33.605C123.835 28.2265 124.526 21.7125 128.874 14.0646C129.086 13.6937 129.369 13.369 129.708 13.1096C130.047 12.8503 130.435 12.6615 130.848 12.5547C131.262 12.4478 131.692 12.4249 132.114 12.4873C132.537 12.5498 132.942 12.6963 133.307 12.9183L133.309 12.9158ZM135.805 14.9048L138.284 16.9162C139.617 15.2729 141.549 14.2267 143.654 14.0077C145.759 13.7888 147.865 14.415 149.508 15.7486C151.151 17.0822 152.198 19.0139 152.416 21.1189C152.635 23.2239 152.009 25.3296 150.676 26.9729L153.154 28.9842C155.021 26.6836 155.898 23.7356 155.591 20.7887C155.285 17.8417 153.82 15.1372 151.519 13.2702C149.219 11.4031 146.271 10.5265 143.324 10.833C140.377 11.1396 137.672 12.6042 135.805 14.9048ZM140.762 18.9275L148.197 24.9615C148.997 23.9756 149.373 22.7121 149.242 21.4492C149.11 20.1862 148.483 19.0271 147.497 18.227C146.511 17.4268 145.247 17.0511 143.984 17.1824C142.721 17.3138 141.562 17.9415 140.762 18.9275ZM157.779 32.7374L160.433 34.8915C161.215 34.311 161.853 33.5596 162.3 32.6948C162.748 31.83 162.991 30.8746 163.013 29.9012C163.035 28.9279 162.835 27.9624 162.427 27.0783C162.019 26.1942 161.415 25.4149 160.661 24.7996C160.066 24.3169 159.416 23.9624 158.736 23.7268C158.604 24.7867 158.35 25.8387 157.982 26.8596C158.549 27.1256 159.025 27.5522 159.352 28.0866C159.679 28.621 159.842 29.2396 159.82 29.8655C159.798 30.4915 159.593 31.0974 159.23 31.6079C158.868 32.1184 158.363 32.5112 157.779 32.7374ZM141.319 46.0994L128.928 36.0427L127.922 37.2818C127.655 37.6105 127.53 38.0316 127.574 38.4526C127.618 38.8736 127.827 39.26 128.155 39.5267L138.069 47.5721C138.398 47.8388 138.819 47.964 139.24 47.9202C139.661 47.8765 140.047 47.6672 140.314 47.3386L141.319 46.0994ZM130.067 32.8563L144.203 44.329C149.16 46.255 154.548 44.7006 160.724 39.2385L131.648 15.6414C127.574 22.8091 127.162 28.4023 130.067 32.8563Z" fill="white"/>
<path d="M184.861 219.457L184.881 219.477C186.853 221.517 188.176 224.096 188.685 226.887C189.193 229.678 188.863 232.558 187.737 235.162C186.61 237.766 184.738 239.979 182.356 241.52C179.973 243.061 177.188 243.862 174.351 243.822C173.756 245.484 172.713 246.949 171.337 248.056C169.962 249.162 168.307 249.867 166.556 250.091C164.805 250.316 163.026 250.053 161.415 249.33C159.805 248.607 158.425 247.453 157.429 245.996C157.087 246.27 156.692 246.471 156.269 246.586C155.846 246.701 155.403 246.727 154.969 246.664C154.535 246.6 154.119 246.448 153.747 246.216C153.374 245.984 153.053 245.678 152.804 245.317C147.81 238.074 146.558 231.645 149.041 226.03L147.55 224.488C146.668 223.575 146.184 222.349 146.206 221.079C146.227 219.81 146.752 218.6 147.665 217.718L156.845 208.844C157.758 207.962 158.984 207.478 160.253 207.5C161.523 207.521 162.732 208.046 163.615 208.959L165.105 210.501C170.801 208.209 177.184 209.679 184.254 214.916C184.596 215.17 184.885 215.491 185.101 215.859C185.318 216.227 185.459 216.634 185.515 217.057C185.572 217.48 185.543 217.911 185.43 218.322C185.317 218.734 185.123 219.119 184.858 219.454L184.861 219.457ZM182.586 221.696L180.291 223.914C181.762 225.436 182.568 227.479 182.532 229.595C182.496 231.711 181.621 233.726 180.1 235.197C178.578 236.668 176.534 237.474 174.418 237.439C172.302 237.403 170.287 236.528 168.816 235.006L166.522 237.224C168.581 239.355 171.402 240.58 174.364 240.63C177.327 240.68 180.188 239.551 182.318 237.492C184.448 235.433 185.673 232.612 185.723 229.649C185.774 226.687 184.645 223.826 182.586 221.696ZM177.996 226.132L171.111 232.788C171.994 233.701 173.203 234.226 174.473 234.247C175.742 234.269 176.968 233.785 177.881 232.902C178.794 232.02 179.319 230.811 179.341 229.541C179.362 228.272 178.878 227.045 177.996 226.132ZM162.239 241.364L159.781 243.74C160.264 244.586 160.933 245.31 161.738 245.858C162.542 246.406 163.461 246.763 164.425 246.902C165.389 247.041 166.371 246.958 167.298 246.66C168.225 246.361 169.071 245.855 169.773 245.18C170.323 244.648 170.753 244.046 171.069 243.399C170.033 243.139 169.019 242.761 168.05 242.273C167.718 242.804 167.237 243.226 166.667 243.486C166.097 243.746 165.464 243.833 164.845 243.736C164.226 243.639 163.649 243.363 163.186 242.941C162.723 242.519 162.394 241.971 162.239 241.364ZM150.954 223.417L162.429 212.325L161.32 211.177C161.025 210.873 160.622 210.698 160.199 210.691C159.776 210.684 159.367 210.845 159.063 211.139L149.883 220.013C149.579 220.307 149.404 220.71 149.397 221.133C149.39 221.556 149.551 221.965 149.845 222.269L150.954 223.417ZM165.455 213.839L152.365 226.493C149.857 231.181 150.752 236.718 155.431 243.506L182.355 217.48C175.729 212.573 170.226 211.491 165.455 213.839Z" fill="white"/>
<path d="M92.7097 67.616C93.3958 64.7289 92.8584 61.856 91.5378 59.7121C90.2172 57.5681 87.7832 55.6171 85.0061 55.1096L68.618 50.91C62.8437 49.5377 57.3052 52.9493 55.9329 58.7236C54.5607 64.4979 57.9723 70.0364 63.7465 71.4087L80.2032 75.3196C85.6888 76.6232 91.406 73.1016 92.7097 67.616ZM81.1638 71.2776L73.0798 69.3565L75.3712 59.0728L62.6678 56.0539C64.0971 55.1734 65.9252 54.5403 67.7675 55.1307L84.2242 59.0416C85.6678 59.3846 87.0842 60.4838 87.8545 61.7344C88.6249 62.9851 88.9693 64.7445 88.7363 66.3668C87.7343 69.9414 84.5183 71.9223 81.1638 71.2776ZM90.0195 77.6524C88.5902 78.5328 87.1195 78.9459 85.4701 79.4689C84.4266 82.5762 81.2107 84.5571 78.0348 83.8024L69.9508 81.8812L70.98 77.5505L62.896 75.6293C59.1427 74.7374 55.9112 72.2918 54.0403 69.2545C53.7244 69.942 53.4085 70.6295 53.2027 71.4956C51.8305 77.2699 55.242 82.8085 61.0163 84.1807L77.473 88.0916C83.2473 89.4639 88.7858 86.0523 90.1581 80.278C89.9652 79.1646 89.9923 78.4085 90.0195 77.6524Z" fill="white"/>
<path d="M193.257 67.616C193.943 64.7289 193.405 61.856 192.085 59.7121C190.764 57.5681 188.33 55.6171 185.553 55.1096L169.165 50.91C163.391 49.5377 157.852 52.9493 156.48 58.7236C155.108 64.4979 158.519 70.0364 164.293 71.4087L180.75 75.3196C186.236 76.6232 191.953 73.1016 193.257 67.616ZM181.711 71.2776L173.627 69.3565L175.918 59.0728L163.215 56.0539C164.644 55.1734 166.472 54.5403 168.314 55.1307L184.771 59.0416C186.215 59.3846 187.631 60.4838 188.401 61.7344C189.172 62.9851 189.516 64.7445 189.283 66.3668C188.281 69.9414 185.065 71.9223 181.711 71.2776ZM190.566 77.6524C189.137 78.5328 187.666 78.9459 186.017 79.4689C184.973 82.5762 181.758 84.5571 178.582 83.8024L170.498 81.8812L171.527 77.5505L163.443 75.6293C159.69 74.7374 156.458 72.2918 154.587 69.2545C154.271 69.942 153.955 70.6295 153.75 71.4956C152.377 77.2699 155.789 82.8085 161.563 84.1807L178.02 88.0916C183.794 89.4639 189.333 86.0523 190.705 80.278C190.512 79.1646 190.539 78.4085 190.566 77.6524Z" fill="white"/>
<path d="M123.346 272.389C126.13 273.417 129.046 273.229 131.334 272.176C133.621 271.123 135.851 268.942 136.688 266.246L142.829 250.482C144.886 244.915 142.165 239.006 136.598 236.949C131.031 234.892 125.122 237.613 123.065 243.18L117.203 259.046C115.249 264.335 118.057 270.435 123.346 272.389ZM121.1 260.486L123.98 252.692L133.913 256.204L138.438 243.956C139.14 245.481 139.549 247.372 138.741 249.13L132.879 264.996C132.365 266.388 131.103 267.662 129.769 268.276C128.435 268.891 126.647 269.021 125.064 268.595C121.636 267.17 120.057 263.739 121.1 260.486ZM113.706 268.511C113.004 266.986 112.771 265.476 112.45 263.776C109.491 262.366 107.911 258.935 109.043 255.873L111.922 248.079L116.098 249.622L118.978 241.828C120.315 238.209 123.131 235.295 126.371 233.803C125.727 233.407 125.083 233.011 124.247 232.702C118.68 230.645 112.771 233.366 110.714 238.933L104.852 254.8C102.795 260.367 105.516 266.276 111.083 268.333C112.212 268.275 112.959 268.393 113.706 268.511Z" fill="white"/>
<path d="M16.9824 76.0087C13.9692 77.5317 11.7452 80.1617 10.6692 82.9644C9.59323 85.767 9.39622 89.4431 10.7058 92.3577L17.3583 110.455C19.7982 116.751 26.3597 119.27 32.3862 116.224C38.4127 113.178 41.1924 105.938 38.7525 99.6414L31.7987 81.6969C29.4808 75.7154 22.7076 73.1151 16.9824 76.0087ZM27.5801 83.8291L30.996 92.6439L20.3599 98.2079L25.7277 112.06C24.0344 111.41 22.3088 110.211 21.6665 108.089L14.7128 90.1443C14.1028 88.5702 14.1851 86.458 14.8128 84.8231C15.4404 83.1882 16.7927 81.5635 18.389 80.5685C22.2166 78.8222 26.0265 80.2848 27.5801 83.8291ZM27.6508 70.9931C29.3441 71.6432 30.6464 72.6791 32.1604 73.7963C35.597 72.4359 39.4069 73.8985 40.7488 77.3615L44.1647 86.1764L39.6448 88.4608L43.0607 97.2757C44.6466 101.368 44.5143 106.141 42.99 110.112C43.8043 109.888 44.6186 109.665 45.5226 109.208C51.5491 106.162 54.3287 98.9218 51.8888 92.6255L44.9351 74.681C42.4952 68.3846 35.9337 65.8656 29.9071 68.9116C29.0355 69.9168 28.3432 70.455 27.6508 70.9931Z" fill="white"/>
<path d="M117.529 76.0087C114.516 77.5317 112.292 80.1617 111.216 82.9644C110.14 85.767 109.943 89.4431 111.253 92.3577L117.905 110.455C120.345 116.751 126.907 119.27 132.933 116.224C138.96 113.178 141.739 105.938 139.299 99.6414L132.346 81.6969C130.028 75.7154 123.255 73.1151 117.529 76.0087ZM128.127 83.8291L131.543 92.6439L120.907 98.2079L126.275 112.06C124.581 111.41 122.856 110.211 122.213 108.089L115.26 90.1443C114.65 88.5702 114.732 86.458 115.36 84.8231C115.987 83.1882 117.34 81.5635 118.936 80.5685C122.763 78.8222 126.573 80.2848 128.127 83.8291ZM128.198 70.9931C129.891 71.6432 131.193 72.6791 132.707 73.7963C136.144 72.4359 139.954 73.8985 141.296 77.3615L144.712 86.1764L140.192 88.4608L143.608 97.2757C145.194 101.368 145.061 106.141 143.537 110.112C144.351 109.888 145.165 109.665 146.069 109.208C152.096 106.162 154.876 98.9218 152.436 92.6255L145.482 74.681C143.042 68.3846 136.481 65.8656 130.454 68.9116C129.582 69.9168 128.89 70.455 128.198 70.9931Z" fill="white"/>
<path d="M124.123 196.202C122.974 193.027 120.63 190.503 117.978 189.098C115.325 187.693 111.699 187.055 108.648 188.004L89.8823 192.431C83.3381 194.096 80.048 200.307 82.3469 206.656C84.6457 213.005 91.499 216.636 98.0431 214.971L116.694 210.226C122.911 208.645 126.307 202.234 124.123 196.202ZM115.085 205.782L105.923 208.113L101.679 196.884L87.2818 200.547C88.1309 198.944 89.5282 197.375 91.7125 196.993L110.363 192.248C111.999 191.832 114.086 192.168 115.634 192.988C117.181 193.808 118.632 195.346 119.427 197.05C120.7 201.06 118.79 204.666 115.085 205.782ZM127.819 207.396C126.97 208.999 125.785 210.167 124.494 211.536C125.431 215.111 123.52 218.718 119.921 219.633L110.759 221.964L109.035 217.202L99.8734 219.532C95.6197 220.615 90.8974 219.909 87.1392 217.918C87.2629 218.753 87.3867 219.589 87.7315 220.541C90.0303 226.89 96.8836 230.521 103.428 228.856L122.079 224.111C128.623 222.447 131.913 216.236 129.614 209.887C128.721 208.9 128.27 208.148 127.819 207.396Z" fill="white"/>
<path d="M68.9785 128.399C66.6127 126.033 63.5372 124.85 60.6982 124.85C57.8592 124.85 54.5471 126.033 52.4179 128.399L38.6962 141.648C33.9646 146.379 33.9646 153.713 38.6962 158.445C43.4278 163.177 50.7618 163.177 55.4934 158.445L68.9785 144.96C73.4736 140.465 73.4736 132.894 68.9785 128.399ZM65.6664 141.648L59.0421 148.272L50.5252 139.992L40.1157 150.401C40.1157 148.509 40.5888 146.379 42.2449 144.96L55.73 131.475C56.9129 130.292 58.8056 129.582 60.4616 129.582C62.1177 129.582 64.0103 130.292 65.4298 131.475C68.2688 134.55 68.2688 138.809 65.6664 141.648ZM77.0223 136.916C77.0223 138.809 76.5491 140.465 76.076 142.357C78.4418 145.196 78.4418 149.455 75.8394 152.057L69.2151 158.681L65.6664 155.133L59.0421 161.757C55.9666 164.833 51.7081 166.489 47.6862 166.489C48.1594 167.198 48.6326 167.908 49.3423 168.618C54.0739 173.35 61.4079 173.35 66.1396 168.618L79.6247 155.133C84.3563 150.401 84.3563 143.067 79.6247 138.336C78.4418 137.862 77.732 137.389 77.0223 136.916Z" fill="white"/>
<path d="M169.525 128.399C167.16 126.033 164.084 124.85 161.245 124.85C158.406 124.85 155.094 126.033 152.965 128.399L139.243 141.648C134.511 146.379 134.511 153.713 139.243 158.445C143.975 163.177 151.309 163.177 156.04 158.445L169.525 144.96C174.02 140.465 174.02 132.894 169.525 128.399ZM166.213 141.648L159.589 148.272L151.072 139.992L140.663 150.401C140.663 148.509 141.136 146.379 142.792 144.96L156.277 131.475C157.46 130.292 159.352 129.582 161.008 129.582C162.665 129.582 164.557 130.292 165.977 131.475C168.816 134.55 168.816 138.809 166.213 141.648ZM177.569 136.916C177.569 138.809 177.096 140.465 176.623 142.357C178.989 145.196 178.989 149.455 176.386 152.057L169.762 158.681L166.213 155.133L159.589 161.757C156.513 164.833 152.255 166.489 148.233 166.489C148.706 167.198 149.179 167.908 149.889 168.618C154.621 173.35 161.955 173.35 166.686 168.618L180.172 155.133C184.903 150.401 184.903 143.067 180.172 138.336C178.989 137.862 178.279 137.389 177.569 136.916Z" fill="white"/>
<path d="M65.8583 241.517C68.4915 239.453 70.0358 236.542 70.3774 233.724C70.7189 230.906 69.943 227.475 67.8506 225.077L56.349 209.861C52.221 204.595 44.9402 203.712 39.6738 207.84C34.4073 211.968 33.525 219.249 37.653 224.516L49.4179 239.525C53.3395 244.528 60.8551 245.439 65.8583 241.517ZM53.1044 236.635L47.3252 229.262L56.57 221.803L47.4883 210.217C49.3672 210.445 51.4241 211.171 52.634 212.986L64.3989 227.995C65.4309 229.312 65.9078 231.276 65.7086 232.92C65.5094 234.564 64.5771 236.358 63.232 237.624C59.8372 240.073 55.6097 239.56 53.1044 236.635ZM56.4356 248.478C54.5567 248.25 52.9695 247.581 51.1476 246.884C48.0446 248.891 43.8171 248.379 41.5467 245.482L35.7674 238.109L39.7173 235.013L33.938 227.64C31.2548 224.217 30.1231 219.79 30.6069 215.797C29.8454 216.182 29.0839 216.566 28.2939 217.185C23.0274 221.313 22.1451 228.594 26.2732 233.861L38.0381 248.87C42.1661 254.137 49.4468 255.019 54.7133 250.891C55.3253 249.773 55.8804 249.126 56.4356 248.478Z" fill="white"/>
</svg>
