<svg width="80" height="80" viewBox="0 0 80 80" fill="none" xmlns="http://www.w3.org/2000/svg">
<path d="M80 40C80 49.2542 76.7912 58.2221 70.9204 65.3757C65.0496 72.5293 56.88 77.426 47.8036 79.2314C38.7272 81.0368 29.3056 79.6393 21.1441 75.2768C12.9826 70.9144 6.58625 63.8571 3.04482 55.3073C-0.496614 46.7576 -0.963969 37.2443 1.72239 28.3886C4.40874 19.5329 10.0826 11.8826 17.7772 6.74122C25.4718 1.59985 34.711 -0.71446 43.9207 0.19261C53.1303 1.09968 61.7406 5.17201 68.2843 11.7157L40 40H80Z" fill="#FF0000"/>
<circle cx="40" cy="40" r="35" fill="white"/>
<path d="M22.8 47.16C22 47.16 21.26 47.0767 20.58 46.91C19.9067 46.7367 19.32 46.4867 18.82 46.16C18.32 45.8267 17.9333 45.4133 17.66 44.92C17.3867 44.4267 17.25 43.8567 17.25 43.21C17.25 42.69 17.3767 42.1733 17.63 41.66C17.8833 41.14 18.3 40.6533 18.88 40.2C19.46 39.7467 20.2333 39.36 21.2 39.04L22.44 40.29C21.9933 40.47 21.5967 40.6933 21.25 40.96C20.9033 41.22 20.63 41.5233 20.43 41.87C20.23 42.2167 20.13 42.61 20.13 43.05C20.13 43.45 20.22 43.82 20.4 44.16C20.5867 44.4933 20.8767 44.76 21.27 44.96C21.67 45.16 22.18 45.26 22.8 45.26C23.2 45.26 23.5733 45.18 23.92 45.02C24.2667 44.8533 24.5467 44.6233 24.76 44.33C24.9733 44.0367 25.08 43.6967 25.08 43.31C25.08 42.8967 24.9467 42.54 24.68 42.24C24.42 41.9333 24.07 41.6567 23.63 41.41C23.1967 41.1567 22.72 40.9067 22.2 40.66C21.68 40.4133 21.1567 40.15 20.63 39.87C20.11 39.5833 19.63 39.2533 19.19 38.88C18.7567 38.5 18.4067 38.0533 18.14 37.54C17.88 37.0267 17.75 36.42 17.75 35.72C17.75 34.9667 17.9533 34.3033 18.36 33.73C18.7667 33.1567 19.34 32.71 20.08 32.39C20.82 32.07 21.6933 31.91 22.7 31.91C23.7133 31.91 24.5767 32.06 25.29 32.36C26.01 32.6533 26.56 33.0633 26.94 33.59C27.32 34.1167 27.51 34.72 27.51 35.4C27.51 35.94 27.3867 36.48 27.14 37.02C26.9 37.56 26.5133 38.05 25.98 38.49C25.4533 38.93 24.7633 39.2733 23.91 39.52L22.71 38.3C23.4433 38.0733 23.97 37.7133 24.29 37.22C24.6167 36.7267 24.7833 36.1833 24.79 35.59C24.8033 35.0767 24.6267 34.65 24.26 34.31C23.8933 33.97 23.3733 33.8 22.7 33.8C22.08 33.8 21.57 33.9633 21.17 34.29C20.7767 34.61 20.58 35.01 20.58 35.49C20.58 35.93 20.7167 36.3233 20.99 36.67C21.2633 37.01 21.6233 37.3233 22.07 37.61C22.5167 37.8967 23.0067 38.1767 23.54 38.45C24.0733 38.7167 24.61 38.9933 25.15 39.28C25.69 39.5667 26.1833 39.8867 26.63 40.24C27.0833 40.5867 27.4467 40.9833 27.72 41.43C28 41.8767 28.1433 42.3933 28.15 42.98C28.1567 43.8867 27.92 44.65 27.44 45.27C26.9667 45.89 26.3267 46.36 25.52 46.68C24.7133 47 23.8067 47.16 22.8 47.16ZM32.4394 47C32.706 46.44 32.9894 45.8233 33.2894 45.15C33.5894 44.4767 33.8994 43.77 34.2194 43.03C34.5394 42.2833 34.856 41.5333 35.1694 40.78C35.4894 40.0267 35.796 39.29 36.0894 38.57C36.3827 37.85 36.656 37.1767 36.9094 36.55C37.1627 35.9167 37.3827 35.36 37.5694 34.88L30.6394 34.86L30.6494 32.14H40.3294L40.9994 33.08L35.8694 47H32.4394ZM46.658 40.95C45.798 40.9567 45.0813 40.7667 44.508 40.38C43.9413 39.9867 43.5146 39.46 43.228 38.8C42.948 38.1333 42.808 37.4033 42.808 36.61C42.808 35.6633 43.0046 34.86 43.398 34.2C43.7913 33.54 44.308 33.04 44.948 32.7C45.588 32.3533 46.2713 32.1767 46.998 32.17C47.898 32.1567 48.6313 32.3467 49.198 32.74C49.7713 33.1267 50.1913 33.6533 50.458 34.32C50.7246 34.9867 50.858 35.7267 50.858 36.54C50.858 37.48 50.6613 38.2767 50.268 38.93C49.8746 39.5833 49.358 40.0833 48.718 40.43C48.078 40.77 47.3913 40.9433 46.658 40.95ZM48.398 47L54.168 32.06H56.588L50.808 47H48.398ZM46.818 39.01C47.338 39.01 47.7346 38.7967 48.008 38.37C48.2813 37.9433 48.418 37.36 48.418 36.62C48.418 35.8667 48.2813 35.26 48.008 34.8C47.7413 34.34 47.358 34.11 46.858 34.11C46.338 34.11 45.938 34.3233 45.658 34.75C45.3846 35.1767 45.248 35.7667 45.248 36.52C45.248 37.2533 45.3846 37.8533 45.658 38.32C45.9313 38.78 46.318 39.01 46.818 39.01ZM57.978 46.84C57.1113 46.8467 56.3913 46.6533 55.818 46.26C55.2513 45.8667 54.8246 45.34 54.538 44.68C54.258 44.0133 54.118 43.28 54.118 42.48C54.118 41.5333 54.3146 40.7333 54.708 40.08C55.1013 39.4267 55.6146 38.93 56.248 38.59C56.888 38.2433 57.5713 38.0667 58.298 38.06C59.198 38.0467 59.9313 38.2367 60.498 38.63C61.0713 39.0167 61.4913 39.5433 61.758 40.21C62.0246 40.87 62.158 41.6033 62.158 42.41C62.158 43.3567 61.9613 44.1567 61.568 44.81C61.1746 45.4633 60.658 45.9633 60.018 46.31C59.3846 46.65 58.7046 46.8267 57.978 46.84ZM58.128 44.89C58.648 44.89 59.0413 44.6767 59.308 44.25C59.5813 43.8167 59.718 43.23 59.718 42.49C59.718 41.7367 59.5813 41.1333 59.308 40.68C59.0413 40.22 58.658 39.99 58.158 39.99C57.6446 39.99 57.248 40.2033 56.968 40.63C56.688 41.05 56.548 41.6367 56.548 42.39C56.548 43.1233 56.6846 43.7233 56.958 44.19C57.238 44.6567 57.628 44.89 58.128 44.89Z" fill="#3A3A3A"/>
</svg>
