<svg width="46" height="65" viewBox="0 0 46 65" fill="none" xmlns="http://www.w3.org/2000/svg">
<path d="M41.4 0H4.6C3.38 0 2.20998 0.484641 1.34731 1.34731C0.484641 2.20998 0 3.38 0 4.6V13.8C0 15.02 0.484641 16.19 1.34731 17.0527C2.20998 17.9154 3.38 18.4 4.6 18.4V59.8C4.6 61.02 5.08464 62.19 5.94731 63.0527C6.80998 63.9154 7.98 64.4 9.2 64.4H36.8C38.02 64.4 39.19 63.9154 40.0527 63.0527C40.9154 62.19 41.4 61.02 41.4 59.8V18.4C42.62 18.4 43.79 17.9154 44.6527 17.0527C45.5154 16.19 46 15.02 46 13.8V4.6C46 3.38 45.5154 2.20998 44.6527 1.34731C43.79 0.484641 42.62 0 41.4 0ZM9.2 27.6H16.1V50.6H9.2V27.6ZM36.8 59.8H9.2V55.2H20.7V23H9.2V18.4H36.8V59.8ZM4.6 13.8V4.6H41.4V13.8H4.6Z" fill="white"/>
</svg>
