<svg width="20" height="22" viewBox="0 0 20 22" fill="none" xmlns="http://www.w3.org/2000/svg">
<path d="M2.72727 17.3636V8.27273C2.72727 6.34388 3.4935 4.49403 4.85741 3.13013C6.22131 1.76623 8.07115 1 10 1C11.9288 1 13.7787 1.76623 15.1426 3.13013C16.5065 4.49403 17.2727 6.34388 17.2727 8.27273V17.3636M0 17.3636H20M12.7273 17.3636V18.2727C12.7273 18.996 12.4399 19.6897 11.9285 20.2012C11.417 20.7127 10.7233 21 10 21C9.27668 21 8.58299 20.7127 8.07153 20.2012C7.56006 19.6897 7.27273 18.996 7.27273 18.2727V17.3636" stroke="#3A3A3A" stroke-width="2"/>
</svg>
