<svg width="168" height="192" viewBox="0 0 168 192" fill="none" xmlns="http://www.w3.org/2000/svg">
<g filter="url(#filter0_d_0_1)">
<ellipse cx="84" cy="92" rx="80" ry="92" fill="#E8E8E8"/>
</g>
<path d="M11.5418 132.932C12.0741 133.071 12.6397 132.994 13.1159 132.719C13.5921 132.444 13.9405 131.992 14.0857 131.461C18.3672 115.487 35.7673 111.346 46.1674 108.869C48.7737 108.25 50.8313 107.759 52.1697 107.181C64.0164 102.04 67.8781 93.7677 69.0336 87.7321C69.1023 87.373 69.0751 87.0021 68.9547 86.6569C68.8343 86.3117 68.6249 86.0044 68.3478 85.7659C62.1792 80.4412 56.9749 72.4478 53.6911 63.2531C53.5985 62.9894 53.4528 62.7474 53.263 62.5423C48.9192 57.8202 46.4251 52.828 46.4251 48.85C46.4251 46.5263 47.3022 44.9676 49.2767 43.7912C49.5724 43.6144 49.8196 43.3669 49.9959 43.0708C50.1722 42.7748 50.2722 42.4395 50.2867 42.0953C51.2054 20.9209 66.286 4.25234 84.7835 4.14427L85.2283 4.17336C103.817 4.43108 118.802 21.4571 119.338 42.9308C119.346 43.2243 119.416 43.5128 119.543 43.7773C119.671 44.0417 119.853 44.276 120.078 44.4646C121.379 45.5661 121.986 46.9628 121.986 48.8583C121.986 52.1878 120.211 56.2822 116.994 60.3808C116.841 60.5779 116.723 60.8001 116.645 61.0375C113.32 71.579 107.35 80.8859 100.276 86.5807C99.9826 86.8174 99.7591 87.129 99.6288 87.4825C99.4985 87.8359 99.4664 88.2181 99.5358 88.5884C100.691 94.6198 104.553 102.888 116.4 108.038C117.8 108.645 119.974 109.118 122.73 109.713C133.027 111.941 150.256 115.678 154.484 131.461C154.555 131.725 154.677 131.972 154.843 132.188C155.01 132.405 155.217 132.586 155.454 132.722C155.69 132.859 155.952 132.947 156.222 132.982C156.493 133.018 156.768 132.999 157.032 132.928C157.295 132.857 157.542 132.735 157.759 132.569C157.975 132.402 158.157 132.195 158.293 131.958C158.429 131.722 158.518 131.46 158.553 131.19C158.588 130.919 158.57 130.644 158.499 130.38C153.615 112.145 134.095 107.917 123.612 105.648C121.18 105.12 119.081 104.667 118.058 104.218C110.327 100.859 105.563 95.7421 103.88 88.9833C111.058 82.8188 117.065 73.3082 120.498 62.642C124.144 57.9033 126.147 53.0233 126.147 48.8541C126.147 46.0733 125.249 43.7538 123.47 41.9415C122.481 18.6471 105.858 0.303442 85.2283 0.00831347L84.6089 0C64.3531 0.108075 47.6597 17.9696 46.2007 40.8607C43.5986 42.7728 42.2767 45.4539 42.2767 48.8583C42.2767 53.7757 45.0576 59.6575 49.9251 65.0529C53.2879 74.2934 58.5005 82.4115 64.7065 88.0937C63.0313 94.8775 58.2635 100.011 50.5154 103.374C49.5136 103.81 47.5184 104.288 45.2072 104.837C34.6449 107.348 14.9919 112.024 10.0703 130.389C9.92818 130.921 10.0034 131.488 10.2793 131.965C10.5552 132.442 11.0094 132.79 11.5418 132.932Z" fill="#D9D9D9"/>
<defs>
<filter id="filter0_d_0_1" x="0" y="0" width="168" height="192" filterUnits="userSpaceOnUse" color-interpolation-filters="sRGB">
<feFlood flood-opacity="0" result="BackgroundImageFix"/>
<feColorMatrix in="SourceAlpha" type="matrix" values="0 0 0 0 0 0 0 0 0 0 0 0 0 0 0 0 0 0 127 0" result="hardAlpha"/>
<feOffset dy="4"/>
<feGaussianBlur stdDeviation="2"/>
<feComposite in2="hardAlpha" operator="out"/>
<feColorMatrix type="matrix" values="0 0 0 0 0 0 0 0 0 0 0 0 0 0 0 0 0 0 0.25 0"/>
<feBlend mode="normal" in2="BackgroundImageFix" result="effect1_dropShadow_0_1"/>
<feBlend mode="normal" in="SourceGraphic" in2="effect1_dropShadow_0_1" result="shape"/>
</filter>
</defs>
</svg>
