<svg width="71" height="71" viewBox="0 0 71 71" fill="none" xmlns="http://www.w3.org/2000/svg">
<mask id="path-1-outside-1_106_899" maskUnits="userSpaceOnUse" x="0" y="0" width="71" height="71" fill="black">
<rect fill="white" width="71" height="71"/>
<path d="M17.6809 39.7447H54.0213H17.6809ZM35.8511 39.7447V67V39.7447ZM21.5745 33.2553V21.5745H18.5323C16.8036 21.5745 15.124 22.1497 13.7583 23.2095C12.3926 24.2693 11.4183 25.7533 10.989 27.4279L6 46.883V47.5319H24.1702V51.4255C24.1702 55.3191 24.1702 57.9149 26.117 61.8085C26.117 61.8085 28.0638 65.7021 30.6596 65.7021M50.1277 33.2553V21.5745H53.1699C54.8986 21.5745 56.5781 22.1497 57.9438 23.2095C59.3095 24.2693 60.2838 25.7533 60.7131 27.4279L65.7021 46.883V47.5319H47.5319V51.4255C47.5319 55.3191 47.5319 57.9149 45.5851 61.8085C45.5851 61.8085 43.6383 65.7021 41.0426 65.7021M21.1851 16.383C21.1851 16.383 17.0319 13.7872 17.0319 10.5426C17.0319 9.33917 17.51 8.18507 18.3609 7.33415C19.2118 6.48323 20.3659 6.00519 21.5693 6.00519C22.7727 6.00519 23.9268 6.48323 24.7777 7.33415C25.6286 8.18507 26.1066 9.33917 26.1066 10.5426C26.1066 13.7872 21.9638 16.383 21.9638 16.383H21.1851ZM50.517 16.383C50.517 16.383 54.6702 13.7872 54.6702 10.5426C54.6702 9.33779 54.1916 8.18238 53.3397 7.33048C52.4878 6.47859 51.3324 6 50.1277 6C47.6202 6 45.5955 8.03506 45.5955 10.5426C45.5955 13.7872 49.7383 16.383 49.7383 16.383H50.517Z"/>
</mask>
<path d="M21.5745 21.5745H26.766V16.383H21.5745V21.5745ZM18.5323 21.5745V16.383L18.5322 16.383L18.5323 21.5745ZM10.989 27.4279L16.0178 28.7174L16.0179 28.7171L10.989 27.4279ZM6 46.883L0.971226 45.5934L0.808511 46.2279V46.883H6ZM6 47.5319H0.808511V52.7234H6V47.5319ZM24.1702 47.5319H29.3617V42.3404H24.1702V47.5319ZM50.1277 21.5745V16.383H44.9362V21.5745H50.1277ZM53.1699 21.5745L53.1699 16.383H53.1699V21.5745ZM60.7131 27.4279L55.6842 28.7171L55.6843 28.7174L60.7131 27.4279ZM65.7021 46.883H70.8936V46.2279L70.7309 45.5934L65.7021 46.883ZM65.7021 47.5319V52.7234H70.8936V47.5319H65.7021ZM47.5319 47.5319V42.3404H42.3404V47.5319H47.5319ZM21.1851 16.383L18.4336 20.7854L19.6962 21.5745H21.1851V16.383ZM17.0319 10.5426H11.8404H17.0319ZM21.5693 6.00519V0.813703V6.00519ZM26.1066 10.5426H31.2981H26.1066ZM21.9638 16.383V21.5745H23.4559L24.7203 20.7823L21.9638 16.383ZM50.517 16.383V21.5745H52.0059L53.2685 20.7854L50.517 16.383ZM54.6702 10.5426H49.4787H54.6702ZM50.1277 6V0.808511V6ZM49.7383 16.383L46.9819 20.7823L48.2462 21.5745H49.7383V16.383ZM17.6809 44.9362H54.0213V34.5532H17.6809V44.9362ZM30.6596 39.7447V67H41.0426V39.7447H30.6596ZM26.766 33.2553V21.5745H16.383V33.2553H26.766ZM21.5745 16.383H18.5323V26.766H21.5745V16.383ZM18.5322 16.383C15.6511 16.383 12.8519 17.3417 10.5756 19.108L16.941 27.311C17.3962 26.9577 17.9561 26.766 18.5323 26.766L18.5322 16.383ZM10.5756 19.108C8.29943 20.8743 6.67564 23.3478 5.96016 26.1387L16.0179 28.7171C16.161 28.1589 16.4857 27.6642 16.941 27.311L10.5756 19.108ZM5.96025 26.1383L0.971226 45.5934L11.0288 48.1725L16.0178 28.7174L5.96025 26.1383ZM0.808511 46.883V47.5319H11.1915V46.883H0.808511ZM6 52.7234H24.1702V42.3404H6V52.7234ZM18.9787 47.5319V51.4255H29.3617V47.5319H18.9787ZM18.9787 51.4255C18.9787 55.4324 18.9492 59.0814 21.4736 64.1302L30.7604 59.4868C29.3912 56.7484 29.3617 55.2059 29.3617 51.4255H18.9787ZM26.117 61.8085C21.4736 64.1302 21.4742 64.1314 21.4748 64.1327C21.4751 64.1331 21.4757 64.1344 21.4761 64.1352C21.477 64.137 21.4779 64.1388 21.4788 64.1407C21.4807 64.1444 21.4827 64.1484 21.4849 64.1526C21.4892 64.1611 21.494 64.1706 21.4993 64.1811C21.51 64.202 21.5228 64.2269 21.5377 64.2554C21.5675 64.3124 21.6058 64.3844 21.6523 64.4694C21.745 64.6386 21.8723 64.8627 22.032 65.124C22.3446 65.6355 22.8142 66.3438 23.4267 67.0788C24.3758 68.2178 26.8621 70.8936 30.6596 70.8936V60.5106C31.3385 60.5106 31.722 60.7659 31.7344 60.7742C31.7418 60.7791 31.6177 60.6893 31.4031 60.4318C31.2044 60.1934 31.0251 59.9283 30.8916 59.7098C30.8282 59.6061 30.7831 59.526 30.7592 59.4823C30.7533 59.4715 30.7488 59.4632 30.7458 59.4576C30.7428 59.452 30.7413 59.4491 30.7413 59.4491C30.7413 59.4491 30.7429 59.4521 30.746 59.4583C30.7476 59.4614 30.7496 59.4653 30.752 59.47C30.7532 59.4724 30.7545 59.475 30.7559 59.4778C30.7566 59.4792 30.7573 59.4806 30.7581 59.4821C30.7585 59.4829 30.7591 59.4841 30.7592 59.4844C30.7598 59.4856 30.7604 59.4868 26.117 61.8085ZM55.3191 33.2553V21.5745H44.9362V33.2553H55.3191ZM50.1277 26.766H53.1699V16.383H50.1277V26.766ZM53.1698 26.766C53.7461 26.766 54.3059 26.9577 54.7611 27.311L61.1265 19.108C58.8503 17.3417 56.0511 16.383 53.1699 16.383L53.1698 26.766ZM54.7611 27.311C55.2164 27.6642 55.5411 28.1589 55.6842 28.7171L65.742 26.1387C65.0265 23.3478 63.4027 20.8743 61.1265 19.108L54.7611 27.311ZM55.6843 28.7174L60.6734 48.1725L70.7309 45.5934L65.7419 26.1383L55.6843 28.7174ZM60.5106 46.883V47.5319H70.8936V46.883H60.5106ZM65.7021 42.3404H47.5319V52.7234H65.7021V42.3404ZM42.3404 47.5319V51.4255H52.7234V47.5319H42.3404ZM42.3404 51.4255C42.3404 55.2059 42.3109 56.7484 40.9417 59.4868L50.2285 64.1302C52.7529 59.0814 52.7234 55.4324 52.7234 51.4255H42.3404ZM45.5851 61.8085C40.9417 59.4868 40.9423 59.4856 40.9429 59.4844C40.9431 59.4841 40.9437 59.4829 40.944 59.4821C40.9448 59.4806 40.9455 59.4792 40.9462 59.4778C40.9476 59.475 40.9489 59.4724 40.9501 59.47C40.9525 59.4653 40.9545 59.4614 40.9561 59.4583C40.9593 59.4521 40.9608 59.4491 40.9608 59.4491C40.9608 59.4491 40.9593 59.452 40.9563 59.4576C40.9533 59.4632 40.9488 59.4715 40.9429 59.4823C40.919 59.526 40.8739 59.6061 40.8106 59.7098C40.677 59.9283 40.4977 60.1934 40.299 60.4318C40.0844 60.6893 39.9604 60.7791 39.9677 60.7742C39.9801 60.7659 40.3636 60.5106 41.0426 60.5106V70.8936C44.84 70.8936 47.3263 68.2178 48.2754 67.0788C48.8879 66.3438 49.3576 65.6355 49.6702 65.124C49.8298 64.8627 49.9572 64.6386 50.0498 64.4694C50.0963 64.3844 50.1346 64.3124 50.1644 64.2554C50.1793 64.2269 50.1921 64.202 50.2028 64.1811C50.2081 64.1706 50.213 64.1611 50.2172 64.1526C50.2194 64.1484 50.2214 64.1444 50.2233 64.1407C50.2242 64.1388 50.2251 64.137 50.226 64.1352C50.2264 64.1344 50.2271 64.1331 50.2273 64.1327C50.2279 64.1314 50.2285 64.1302 45.5851 61.8085ZM21.1851 16.383C23.9366 11.9806 23.9378 11.9814 23.939 11.9821C23.9393 11.9823 23.9405 11.9831 23.9412 11.9835C23.9427 11.9845 23.9442 11.9854 23.9455 11.9862C23.9483 11.9879 23.9508 11.9895 23.9531 11.991C23.9577 11.9939 23.9614 11.9962 23.9642 11.998C23.9699 12.0016 23.972 12.003 23.9709 12.0023C23.9688 12.0009 23.9539 11.9912 23.9282 11.9737C23.8763 11.9384 23.7839 11.8738 23.6649 11.7839C23.418 11.5975 23.1035 11.3375 22.8078 11.0372C22.5004 10.7249 22.3106 10.4672 22.2172 10.2994C22.126 10.1356 22.2234 10.2343 22.2234 10.5426H11.8404C11.8404 14.2868 14.1284 17.0211 15.4092 18.3219C16.1518 19.0761 16.8756 19.6678 17.4075 20.0695C17.6778 20.2736 17.9099 20.4372 18.0851 20.5565C18.1729 20.6163 18.2473 20.6656 18.306 20.7037C18.3353 20.7228 18.3608 20.7392 18.3822 20.7528C18.3928 20.7596 18.4025 20.7658 18.4111 20.7712C18.4154 20.7739 18.4194 20.7764 18.4231 20.7788C18.425 20.78 18.4268 20.7811 18.4286 20.7822C18.4295 20.7827 18.4307 20.7835 18.4312 20.7838C18.4324 20.7846 18.4336 20.7854 21.1851 16.383ZM22.2234 10.5426C22.2234 10.716 22.1545 10.8824 22.0318 11.0051L14.6899 3.66322C12.8654 5.48773 11.8404 7.9623 11.8404 10.5426H22.2234ZM22.0318 11.0051C21.9091 11.1278 21.7428 11.1967 21.5693 11.1967V0.813703C18.989 0.813703 16.5145 1.8387 14.6899 3.66322L22.0318 11.0051ZM21.5693 11.1967C21.3958 11.1967 21.2294 11.1278 21.1067 11.0051L28.4486 3.66322C26.6241 1.8387 24.1495 0.813703 21.5693 0.813703V11.1967ZM21.1067 11.0051C20.9841 10.8824 20.9151 10.716 20.9151 10.5426H31.2981C31.2981 7.9623 30.2731 5.48773 28.4486 3.66322L21.1067 11.0051ZM20.9151 10.5426C20.9151 10.2372 21.0114 10.1401 20.9203 10.3042C20.827 10.4723 20.6377 10.7299 20.3314 11.0418C20.0367 11.3418 19.7234 11.6015 19.4775 11.7877C19.3589 11.8774 19.2669 11.9419 19.2153 11.9771C19.1897 11.9946 19.175 12.0042 19.1729 12.0056C19.1719 12.0063 19.1741 12.0048 19.1797 12.0012C19.1825 11.9994 19.1862 11.997 19.1908 11.9941C19.1931 11.9927 19.1957 11.9911 19.1984 11.9893C19.1998 11.9885 19.2012 11.9876 19.2027 11.9866C19.2035 11.9862 19.2046 11.9854 19.205 11.9852C19.2062 11.9845 19.2074 11.9837 21.9638 16.383C24.7203 20.7823 24.7215 20.7815 24.7227 20.7807C24.7232 20.7804 24.7244 20.7796 24.7253 20.7791C24.727 20.778 24.7289 20.7769 24.7307 20.7757C24.7345 20.7733 24.7385 20.7708 24.7428 20.768C24.7514 20.7626 24.7611 20.7565 24.7717 20.7497C24.793 20.736 24.8185 20.7196 24.8478 20.7005C24.9064 20.6623 24.9807 20.613 25.0684 20.5531C25.2434 20.4337 25.475 20.27 25.7448 20.0657C26.2757 19.6638 26.9981 19.0717 27.7391 18.3173C29.0183 17.0148 31.2981 14.2819 31.2981 10.5426H20.9151ZM21.9638 11.1915H21.1851V21.5745H21.9638V11.1915ZM50.517 16.383C53.2685 20.7854 53.2697 20.7846 53.271 20.7838C53.2714 20.7835 53.2727 20.7827 53.2735 20.7822C53.2753 20.7811 53.2771 20.78 53.279 20.7788C53.2827 20.7764 53.2868 20.7739 53.2911 20.7712C53.2996 20.7658 53.3093 20.7596 53.32 20.7528C53.3413 20.7392 53.3668 20.7228 53.3961 20.7037C53.4548 20.6656 53.5292 20.6163 53.6171 20.5565C53.7923 20.4372 54.0243 20.2736 54.2946 20.0695C54.8265 19.6678 55.5503 19.0761 56.2929 18.3219C57.5737 17.0211 59.8617 14.2868 59.8617 10.5426H49.4787C49.4787 10.2343 49.5761 10.1356 49.485 10.2994C49.3916 10.4672 49.2018 10.7249 48.8943 11.0371C48.5986 11.3375 48.2841 11.5975 48.0373 11.7839C47.9182 11.8738 47.8258 11.9384 47.7739 11.9737C47.7482 11.9912 47.7334 12.0009 47.7312 12.0023C47.7301 12.003 47.7323 12.0016 47.7379 11.998C47.7407 11.9962 47.7444 11.9939 47.749 11.991C47.7513 11.9895 47.7538 11.9879 47.7566 11.9862C47.758 11.9854 47.7594 11.9845 47.7609 11.9835C47.7616 11.9831 47.7628 11.9823 47.7632 11.9821C47.7643 11.9814 47.7655 11.9806 50.517 16.383ZM59.8617 10.5426C59.8617 7.96092 58.8361 5.48503 57.0107 3.65955L49.6688 11.0014C49.5471 10.8797 49.4787 10.7147 49.4787 10.5426H59.8617ZM57.0107 3.65955C55.1852 1.83406 52.7093 0.808511 50.1277 0.808511V11.1915C49.9555 11.1915 49.7905 11.1231 49.6688 11.0014L57.0107 3.65955ZM50.1277 0.808511C44.7375 0.808511 40.404 5.18337 40.404 10.5426H50.787C50.787 10.8868 50.5028 11.1915 50.1277 11.1915V0.808511ZM40.404 10.5426C40.404 14.2819 42.6838 17.0148 43.9631 18.3173C44.7041 19.0717 45.4264 19.6638 45.9573 20.0657C46.2271 20.27 46.4588 20.4337 46.6337 20.5531C46.7215 20.613 46.7957 20.6623 46.8543 20.7005C46.8836 20.7196 46.9091 20.736 46.9304 20.7497C46.9411 20.7565 46.9507 20.7626 46.9593 20.768C46.9636 20.7708 46.9676 20.7733 46.9714 20.7757C46.9733 20.7769 46.9751 20.778 46.9768 20.7791C46.9777 20.7796 46.979 20.7804 46.9794 20.7807C46.9806 20.7815 46.9819 20.7823 49.7383 16.383C52.4947 11.9837 52.4959 11.9845 52.4971 11.9852C52.4975 11.9854 52.4986 11.9862 52.4994 11.9866C52.5009 11.9876 52.5023 11.9885 52.5037 11.9893C52.5065 11.9911 52.509 11.9927 52.5113 11.9941C52.5159 11.997 52.5196 11.9994 52.5224 12.0012C52.5281 12.0048 52.5303 12.0063 52.5292 12.0056C52.5271 12.0042 52.5124 11.9946 52.4869 11.9771C52.4352 11.9419 52.3432 11.8774 52.2247 11.7877C51.9788 11.6015 51.6654 11.3418 51.3707 11.0418C51.0644 10.7299 50.8751 10.4723 50.7818 10.3042C50.6907 10.1401 50.787 10.2372 50.787 10.5426H40.404ZM49.7383 21.5745H50.517V11.1915H49.7383V21.5745Z" fill="white" mask="url(#path-1-outside-1_106_899)"/>
</svg>
