<svg width="262" height="146" viewBox="0 0 262 146" fill="none" xmlns="http://www.w3.org/2000/svg">
<g filter="url(#filter0_d_595_21)">
<rect x="4" width="254" height="138" rx="20" fill="white"/>
</g>
<line x1="45.5" y1="38" x2="45.5" y2="112" stroke="#E8E8E8"/>
<line x1="236.009" y1="110.32" x2="47.0015" y2="112.064" stroke="#E8E8E8"/>
<path d="M55.876 125L56.824 116.084H58.228L60.208 121.88L60.64 123.548L61.072 121.88L62.932 116.084H64.264L65.416 125H64.42L63.796 119.456L63.532 116.816L62.812 119.456L60.916 125.084H60.376L58.384 119.456L57.592 116.816L57.364 119.456L56.836 125H55.876ZM69.8132 125.096C69.2812 125.096 68.8292 125 68.4572 124.808C68.0852 124.616 67.7832 124.354 67.5512 124.022C67.3192 123.69 67.1512 123.31 67.0472 122.882C66.9432 122.454 66.8932 122.004 66.8972 121.532C66.9092 120.824 67.0492 120.224 67.3172 119.732C67.5892 119.24 67.9512 118.868 68.4032 118.616C68.8592 118.36 69.3692 118.232 69.9332 118.232C70.6292 118.232 71.1912 118.394 71.6192 118.718C72.0512 119.042 72.3632 119.472 72.5552 120.008C72.7512 120.54 72.8452 121.12 72.8372 121.748C72.8252 122.46 72.6872 123.066 72.4232 123.566C72.1632 124.062 71.8072 124.442 71.3552 124.706C70.9032 124.966 70.3892 125.096 69.8132 125.096ZM69.8372 124.4C70.4732 124.404 70.9652 124.166 71.3132 123.686C71.6652 123.202 71.8412 122.544 71.8412 121.712C71.8452 121.2 71.7792 120.736 71.6432 120.32C71.5072 119.9 71.2972 119.566 71.0132 119.318C70.7292 119.07 70.3652 118.944 69.9212 118.94C69.2932 118.928 68.7992 119.15 68.4392 119.606C68.0832 120.062 67.9012 120.708 67.8932 121.544C67.8932 122.052 67.9612 122.522 68.0972 122.954C68.2332 123.382 68.4432 123.728 68.7272 123.992C69.0152 124.256 69.3852 124.392 69.8372 124.4Z" fill="#3A3A3A"/>
<path d="M26.996 115.072C26.46 115.072 25.994 114.946 25.598 114.694C25.206 114.438 24.88 114.092 24.62 113.656C24.364 113.22 24.176 112.724 24.056 112.168C23.936 111.608 23.88 111.024 23.888 110.416C23.9 109.508 24.044 108.722 24.32 108.058C24.596 107.39 24.976 106.874 25.46 106.51C25.944 106.146 26.504 105.964 27.14 105.964C27.688 105.964 28.156 106.082 28.544 106.318C28.936 106.55 29.254 106.872 29.498 107.284C29.742 107.696 29.92 108.174 30.032 108.718C30.144 109.262 30.196 109.844 30.188 110.464C30.18 111.368 30.046 112.166 29.786 112.858C29.526 113.55 29.158 114.092 28.682 114.484C28.21 114.876 27.648 115.072 26.996 115.072ZM27.032 114.172C27.724 114.188 28.262 113.874 28.646 113.23C29.03 112.586 29.224 111.676 29.228 110.5C29.232 109.772 29.162 109.136 29.018 108.592C28.874 108.048 28.644 107.626 28.328 107.326C28.012 107.026 27.596 106.876 27.08 106.876C26.404 106.876 25.864 107.182 25.46 107.794C25.06 108.406 24.856 109.264 24.848 110.368C24.844 111.076 24.918 111.716 25.07 112.288C25.222 112.86 25.458 113.316 25.778 113.656C26.102 113.992 26.52 114.164 27.032 114.172ZM33.5942 110.98C33.1702 110.988 32.8082 110.886 32.5082 110.674C32.2082 110.458 31.9782 110.172 31.8182 109.816C31.6582 109.46 31.5782 109.072 31.5782 108.652C31.5782 108.144 31.6802 107.714 31.8842 107.362C32.0922 107.01 32.3622 106.74 32.6942 106.552C33.0302 106.364 33.3902 106.264 33.7742 106.252C34.2422 106.244 34.6262 106.346 34.9262 106.558C35.2262 106.766 35.4462 107.05 35.5862 107.41C35.7302 107.77 35.8022 108.168 35.8022 108.604C35.8022 109.112 35.6982 109.542 35.4902 109.894C35.2822 110.242 35.0102 110.508 34.6742 110.692C34.3382 110.876 33.9782 110.972 33.5942 110.98ZM34.3982 115L38.2502 106.036H39.1022L35.2502 115H34.3982ZM33.6542 110.32C34.0342 110.312 34.3402 110.162 34.5722 109.87C34.8082 109.578 34.9262 109.168 34.9262 108.64C34.9262 108.128 34.8222 107.71 34.6142 107.386C34.4102 107.062 34.1102 106.904 33.7142 106.912C33.3382 106.916 33.0322 107.07 32.7962 107.374C32.5602 107.678 32.4422 108.092 32.4422 108.616C32.4422 109.096 32.5502 109.502 32.7662 109.834C32.9822 110.162 33.2782 110.324 33.6542 110.32ZM39.7742 114.676C39.3462 114.684 38.9802 114.582 38.6762 114.37C38.3762 114.154 38.1462 113.868 37.9862 113.512C37.8262 113.156 37.7462 112.768 37.7462 112.348C37.7462 111.84 37.8482 111.412 38.0522 111.064C38.2602 110.712 38.5302 110.444 38.8622 110.26C39.1982 110.072 39.5582 109.972 39.9422 109.96C40.4102 109.944 40.7922 110.042 41.0882 110.254C41.3882 110.462 41.6082 110.746 41.7482 111.106C41.8882 111.466 41.9582 111.864 41.9582 112.3C41.9582 112.808 41.8542 113.236 41.6462 113.584C41.4422 113.932 41.1742 114.198 40.8422 114.382C40.5102 114.566 40.1542 114.664 39.7742 114.676ZM39.8222 114.016C40.2022 114.008 40.5062 113.858 40.7342 113.566C40.9662 113.27 41.0822 112.856 41.0822 112.324C41.0822 111.82 40.9802 111.406 40.7762 111.082C40.5762 110.758 40.2782 110.6 39.8822 110.608C39.5062 110.612 39.2002 110.766 38.9642 111.07C38.7282 111.37 38.6102 111.784 38.6102 112.312C38.6102 112.792 38.7182 113.196 38.9342 113.524C39.1502 113.852 39.4462 114.016 39.8222 114.016Z" fill="#3A3A3A"/>
<path d="M19.812 82.096C19.716 82.096 19.596 82.09 19.452 82.078C19.308 82.07 19.184 82.052 19.08 82.024L19.092 81.352C19.172 81.364 19.246 81.374 19.314 81.382C19.382 81.386 19.464 81.388 19.56 81.388C20.268 81.388 20.898 81.296 21.45 81.112C22.006 80.928 22.442 80.652 22.758 80.284C23.074 79.912 23.232 79.444 23.232 78.88C23.232 78.344 23.074 77.926 22.758 77.626C22.446 77.326 21.932 77.176 21.216 77.176C20.952 77.176 20.658 77.208 20.334 77.272C20.01 77.332 19.688 77.42 19.368 77.536L19.128 77.392L19.488 73.084H23.88L23.784 73.924H20.256L19.968 76.72C20.256 76.628 20.544 76.56 20.832 76.516C21.12 76.468 21.392 76.444 21.648 76.444C22.536 76.444 23.188 76.666 23.604 77.11C24.02 77.55 24.228 78.116 24.228 78.808C24.228 79.276 24.13 79.71 23.934 80.11C23.742 80.51 23.458 80.858 23.082 81.154C22.706 81.45 22.244 81.682 21.696 81.85C21.148 82.014 20.52 82.096 19.812 82.096ZM29.0507 82.072C28.5147 82.072 28.0487 81.946 27.6527 81.694C27.2607 81.438 26.9347 81.092 26.6747 80.656C26.4187 80.22 26.2307 79.724 26.1107 79.168C25.9907 78.608 25.9347 78.024 25.9427 77.416C25.9547 76.508 26.0987 75.722 26.3747 75.058C26.6507 74.39 27.0307 73.874 27.5147 73.51C27.9987 73.146 28.5587 72.964 29.1947 72.964C29.7427 72.964 30.2107 73.082 30.5987 73.318C30.9907 73.55 31.3087 73.872 31.5527 74.284C31.7967 74.696 31.9747 75.174 32.0867 75.718C32.1987 76.262 32.2507 76.844 32.2427 77.464C32.2347 78.368 32.1007 79.166 31.8407 79.858C31.5807 80.55 31.2127 81.092 30.7367 81.484C30.2647 81.876 29.7027 82.072 29.0507 82.072ZM29.0867 81.172C29.7787 81.188 30.3167 80.874 30.7007 80.23C31.0847 79.586 31.2787 78.676 31.2827 77.5C31.2867 76.772 31.2167 76.136 31.0727 75.592C30.9287 75.048 30.6987 74.626 30.3827 74.326C30.0667 74.026 29.6507 73.876 29.1347 73.876C28.4587 73.876 27.9187 74.182 27.5147 74.794C27.1147 75.406 26.9107 76.264 26.9027 77.368C26.8987 78.076 26.9727 78.716 27.1247 79.288C27.2767 79.86 27.5127 80.316 27.8327 80.656C28.1567 80.992 28.5747 81.164 29.0867 81.172ZM35.6489 77.98C35.2249 77.988 34.8629 77.886 34.5629 77.674C34.2629 77.458 34.0329 77.172 33.8729 76.816C33.7129 76.46 33.6329 76.072 33.6329 75.652C33.6329 75.144 33.7349 74.714 33.9389 74.362C34.1469 74.01 34.4169 73.74 34.7489 73.552C35.0849 73.364 35.4449 73.264 35.8289 73.252C36.2969 73.244 36.6809 73.346 36.9809 73.558C37.2809 73.766 37.5009 74.05 37.6409 74.41C37.7849 74.77 37.8569 75.168 37.8569 75.604C37.8569 76.112 37.7529 76.542 37.5449 76.894C37.3369 77.242 37.0649 77.508 36.7289 77.692C36.3929 77.876 36.0329 77.972 35.6489 77.98ZM36.4529 82L40.3049 73.036H41.1569L37.3049 82H36.4529ZM35.7089 77.32C36.0889 77.312 36.3949 77.162 36.6269 76.87C36.8629 76.578 36.9809 76.168 36.9809 75.64C36.9809 75.128 36.8769 74.71 36.6689 74.386C36.4649 74.062 36.1649 73.904 35.7689 73.912C35.3929 73.916 35.0869 74.07 34.8509 74.374C34.6149 74.678 34.4969 75.092 34.4969 75.616C34.4969 76.096 34.6049 76.502 34.8209 76.834C35.0369 77.162 35.3329 77.324 35.7089 77.32ZM41.8289 81.676C41.4009 81.684 41.0349 81.582 40.7309 81.37C40.4309 81.154 40.2009 80.868 40.0409 80.512C39.8809 80.156 39.8009 79.768 39.8009 79.348C39.8009 78.84 39.9029 78.412 40.1069 78.064C40.3149 77.712 40.5849 77.444 40.9169 77.26C41.2529 77.072 41.6129 76.972 41.9969 76.96C42.4649 76.944 42.8469 77.042 43.1429 77.254C43.4429 77.462 43.6629 77.746 43.8029 78.106C43.9429 78.466 44.0129 78.864 44.0129 79.3C44.0129 79.808 43.9089 80.236 43.7009 80.584C43.4969 80.932 43.2289 81.198 42.8969 81.382C42.5649 81.566 42.2089 81.664 41.8289 81.676ZM41.8769 81.016C42.2569 81.008 42.5609 80.858 42.7889 80.566C43.0209 80.27 43.1369 79.856 43.1369 79.324C43.1369 78.82 43.0349 78.406 42.8309 78.082C42.6309 77.758 42.3329 77.6 41.9369 77.608C41.5609 77.612 41.2549 77.766 41.0189 78.07C40.7829 78.37 40.6649 78.784 40.6649 79.312C40.6649 79.792 40.7729 80.196 40.9889 80.524C41.2049 80.852 41.5009 81.016 41.8769 81.016Z" fill="#3A3A3A"/>
<path d="M14.388 47V39.248C14.144 39.348 13.88 39.446 13.596 39.542C13.312 39.638 13.04 39.716 12.78 39.776L12.66 39.128C12.856 39.068 13.064 38.988 13.284 38.888C13.508 38.784 13.726 38.674 13.938 38.558C14.154 38.438 14.344 38.324 14.508 38.216C14.676 38.108 14.8 38.02 14.88 37.952L15.336 38.084V47H14.388ZM21.2694 47.072C20.7334 47.072 20.2674 46.946 19.8714 46.694C19.4794 46.438 19.1534 46.092 18.8934 45.656C18.6374 45.22 18.4494 44.724 18.3294 44.168C18.2094 43.608 18.1534 43.024 18.1614 42.416C18.1734 41.508 18.3174 40.722 18.5934 40.058C18.8694 39.39 19.2494 38.874 19.7334 38.51C20.2174 38.146 20.7774 37.964 21.4134 37.964C21.9614 37.964 22.4294 38.082 22.8174 38.318C23.2094 38.55 23.5274 38.872 23.7714 39.284C24.0154 39.696 24.1934 40.174 24.3054 40.718C24.4174 41.262 24.4694 41.844 24.4614 42.464C24.4534 43.368 24.3194 44.166 24.0594 44.858C23.7994 45.55 23.4314 46.092 22.9554 46.484C22.4834 46.876 21.9214 47.072 21.2694 47.072ZM21.3054 46.172C21.9974 46.188 22.5354 45.874 22.9194 45.23C23.3034 44.586 23.4974 43.676 23.5014 42.5C23.5054 41.772 23.4354 41.136 23.2914 40.592C23.1474 40.048 22.9174 39.626 22.6014 39.326C22.2854 39.026 21.8694 38.876 21.3534 38.876C20.6774 38.876 20.1374 39.182 19.7334 39.794C19.3334 40.406 19.1294 41.264 19.1214 42.368C19.1174 43.076 19.1914 43.716 19.3434 44.288C19.4954 44.86 19.7314 45.316 20.0514 45.656C20.3754 45.992 20.7934 46.164 21.3054 46.172ZM29.3437 47.072C28.8077 47.072 28.3417 46.946 27.9457 46.694C27.5537 46.438 27.2277 46.092 26.9677 45.656C26.7117 45.22 26.5237 44.724 26.4037 44.168C26.2837 43.608 26.2277 43.024 26.2357 42.416C26.2477 41.508 26.3917 40.722 26.6677 40.058C26.9437 39.39 27.3237 38.874 27.8077 38.51C28.2917 38.146 28.8517 37.964 29.4877 37.964C30.0357 37.964 30.5037 38.082 30.8917 38.318C31.2837 38.55 31.6017 38.872 31.8457 39.284C32.0897 39.696 32.2677 40.174 32.3797 40.718C32.4917 41.262 32.5437 41.844 32.5357 42.464C32.5277 43.368 32.3937 44.166 32.1337 44.858C31.8737 45.55 31.5057 46.092 31.0297 46.484C30.5577 46.876 29.9957 47.072 29.3437 47.072ZM29.3797 46.172C30.0717 46.188 30.6097 45.874 30.9937 45.23C31.3777 44.586 31.5717 43.676 31.5757 42.5C31.5797 41.772 31.5097 41.136 31.3657 40.592C31.2217 40.048 30.9917 39.626 30.6757 39.326C30.3597 39.026 29.9437 38.876 29.4277 38.876C28.7517 38.876 28.2117 39.182 27.8077 39.794C27.4077 40.406 27.2037 41.264 27.1957 42.368C27.1917 43.076 27.2657 43.716 27.4177 44.288C27.5697 44.86 27.8057 45.316 28.1257 45.656C28.4497 45.992 28.8677 46.164 29.3797 46.172ZM35.9419 42.98C35.5179 42.988 35.1559 42.886 34.8559 42.674C34.5559 42.458 34.3259 42.172 34.1659 41.816C34.0059 41.46 33.9259 41.072 33.9259 40.652C33.9259 40.144 34.0279 39.714 34.2319 39.362C34.4399 39.01 34.7099 38.74 35.0419 38.552C35.3779 38.364 35.7379 38.264 36.1219 38.252C36.5899 38.244 36.9739 38.346 37.2739 38.558C37.5739 38.766 37.7939 39.05 37.9339 39.41C38.0779 39.77 38.1499 40.168 38.1499 40.604C38.1499 41.112 38.0459 41.542 37.8379 41.894C37.6299 42.242 37.3579 42.508 37.0219 42.692C36.6859 42.876 36.3259 42.972 35.9419 42.98ZM36.7459 47L40.5979 38.036H41.4499L37.5979 47H36.7459ZM36.0019 42.32C36.3819 42.312 36.6879 42.162 36.9199 41.87C37.1559 41.578 37.2739 41.168 37.2739 40.64C37.2739 40.128 37.1699 39.71 36.9619 39.386C36.7579 39.062 36.4579 38.904 36.0619 38.912C35.6859 38.916 35.3799 39.07 35.1439 39.374C34.9079 39.678 34.7899 40.092 34.7899 40.616C34.7899 41.096 34.8979 41.502 35.1139 41.834C35.3299 42.162 35.6259 42.324 36.0019 42.32ZM42.1219 46.676C41.6939 46.684 41.3279 46.582 41.0239 46.37C40.7239 46.154 40.4939 45.868 40.3339 45.512C40.1739 45.156 40.0939 44.768 40.0939 44.348C40.0939 43.84 40.1959 43.412 40.3999 43.064C40.6079 42.712 40.8779 42.444 41.2099 42.26C41.5459 42.072 41.9059 41.972 42.2899 41.96C42.7579 41.944 43.1399 42.042 43.4359 42.254C43.7359 42.462 43.9559 42.746 44.0959 43.106C44.2359 43.466 44.3059 43.864 44.3059 44.3C44.3059 44.808 44.2019 45.236 43.9939 45.584C43.7899 45.932 43.5219 46.198 43.1899 46.382C42.8579 46.566 42.5019 46.664 42.1219 46.676ZM42.1699 46.016C42.5499 46.008 42.8539 45.858 43.0819 45.566C43.3139 45.27 43.4299 44.856 43.4299 44.324C43.4299 43.82 43.3279 43.406 43.1239 43.082C42.9239 42.758 42.6259 42.6 42.2299 42.608C41.8539 42.612 41.5479 42.766 41.3119 43.07C41.0759 43.37 40.9579 43.784 40.9579 44.312C40.9579 44.792 41.0659 45.196 41.2819 45.524C41.4979 45.852 41.7939 46.016 42.1699 46.016Z" fill="#3A3A3A"/>
<path d="M80.24 125V116.852H77.36V116.084H84.164V116.852H81.248V125H80.24ZM86.6652 125.096C86.2372 125.096 85.8932 125.028 85.6332 124.892C85.3732 124.752 85.1772 124.556 85.0452 124.304C84.9132 124.048 84.8232 123.746 84.7752 123.398C84.7312 123.05 84.7092 122.664 84.7092 122.24V118.316H85.6812V122.276C85.6812 122.836 85.7232 123.26 85.8072 123.548C85.8952 123.836 86.0392 124.03 86.2392 124.13C86.4392 124.23 86.7132 124.28 87.0612 124.28C87.2852 124.28 87.5152 124.248 87.7512 124.184C87.9872 124.12 88.2052 124.04 88.4052 123.944C88.6092 123.848 88.7732 123.752 88.8972 123.656V118.316H89.8812V125.072H89.4972C89.3412 125.072 89.2192 125.048 89.1312 125C89.0472 124.956 89.0052 124.848 89.0052 124.676V124.136L89.0172 124.304C88.8092 124.452 88.5732 124.586 88.3092 124.706C88.0452 124.826 87.7712 124.922 87.4872 124.994C87.2032 125.062 86.9292 125.096 86.6652 125.096Z" fill="#3A3A3A"/>
<path d="M101.628 125.096L99.216 116.084H100.236L101.688 121.976L102.168 124.304H102.012L102.528 121.976L104.28 116.084H105.012L106.776 121.976L107.364 124.304H107.196L107.64 121.988L109.02 116.084H110.028L107.736 125.096H106.764L104.856 118.676L104.484 116.852H104.784L104.424 118.676L102.492 125.096H101.628ZM113.544 125.096C112.608 125.096 111.89 124.796 111.39 124.196C110.89 123.592 110.64 122.756 110.64 121.688C110.64 121.02 110.756 120.428 110.988 119.912C111.22 119.392 111.558 118.984 112.002 118.688C112.446 118.388 112.988 118.236 113.628 118.232C113.984 118.224 114.306 118.28 114.594 118.4C114.886 118.516 115.136 118.686 115.344 118.91C115.556 119.13 115.72 119.396 115.836 119.708C115.956 120.016 116.02 120.36 116.028 120.74C116.028 120.948 116.026 121.136 116.022 121.304C116.018 121.468 116.004 121.62 115.98 121.76H111.228L111.312 121.1H115.104C115.128 120.692 115.094 120.324 115.002 119.996C114.914 119.668 114.754 119.408 114.522 119.216C114.29 119.024 113.972 118.928 113.568 118.928C113.184 118.928 112.84 119.032 112.536 119.24C112.232 119.444 111.994 119.772 111.822 120.224C111.654 120.676 111.58 121.268 111.6 122C111.62 122.572 111.726 123.03 111.918 123.374C112.11 123.718 112.368 123.968 112.692 124.124C113.016 124.276 113.384 124.352 113.796 124.352C114 124.352 114.218 124.326 114.45 124.274C114.686 124.222 114.906 124.158 115.11 124.082C115.318 124.002 115.48 123.924 115.596 123.848L115.8 124.484C115.656 124.604 115.46 124.71 115.212 124.802C114.964 124.894 114.692 124.966 114.396 125.018C114.104 125.07 113.82 125.096 113.544 125.096Z" fill="#3A3A3A"/>
<path d="M124.24 125V116.852H121.36V116.084H128.164V116.852H125.248V125H124.24ZM129.628 125V115.244H130.612V118.22L130.552 119.252L130.504 119.18C130.664 119.048 130.876 118.91 131.14 118.766C131.408 118.618 131.704 118.492 132.028 118.388C132.352 118.284 132.68 118.228 133.012 118.22C133.752 118.208 134.282 118.414 134.602 118.838C134.926 119.258 135.084 119.988 135.076 121.028V125H134.104V120.968C134.104 120.24 133.998 119.732 133.786 119.444C133.578 119.152 133.188 119.016 132.616 119.036C132.288 119.048 131.938 119.136 131.566 119.3C131.194 119.464 130.876 119.648 130.612 119.852V125H129.628Z" fill="#3A3A3A"/>
<path d="M144.128 125V116.084H149.108V116.852H145.112V120.14H148.1V120.908H145.112V125H144.128ZM150.874 119.924L150.802 119.276C150.87 119.164 151.01 119.026 151.222 118.862C151.434 118.698 151.686 118.552 151.978 118.424C152.27 118.296 152.57 118.232 152.878 118.232C153.03 118.232 153.158 118.238 153.262 118.25C153.37 118.262 153.454 118.28 153.514 118.304V119.228C153.454 119.196 153.364 119.164 153.244 119.132C153.128 119.1 152.946 119.084 152.698 119.084C152.426 119.084 152.17 119.132 151.93 119.228C151.694 119.32 151.484 119.432 151.3 119.564C151.12 119.692 150.978 119.812 150.874 119.924ZM149.95 125V118.328H150.79L150.85 119.276L150.934 119.696V125H149.95Z" fill="#3A3A3A"/>
<path d="M168.324 125.096C167.936 125.096 167.57 125.066 167.226 125.006C166.882 124.95 166.584 124.882 166.332 124.802C166.08 124.718 165.9 124.64 165.792 124.568L166.032 123.752C166.192 123.848 166.392 123.938 166.632 124.022C166.876 124.106 167.138 124.174 167.418 124.226C167.702 124.278 167.984 124.304 168.264 124.304C168.884 124.304 169.374 124.186 169.734 123.95C170.098 123.71 170.28 123.344 170.28 122.852C170.28 122.512 170.19 122.23 170.01 122.006C169.83 121.782 169.58 121.584 169.26 121.412C168.94 121.236 168.572 121.052 168.156 120.86C167.768 120.684 167.394 120.472 167.034 120.224C166.678 119.976 166.386 119.686 166.158 119.354C165.93 119.018 165.816 118.632 165.816 118.196C165.816 117.784 165.9 117.438 166.068 117.158C166.24 116.874 166.466 116.646 166.746 116.474C167.03 116.302 167.34 116.178 167.676 116.102C168.016 116.026 168.356 115.988 168.696 115.988C169.26 115.988 169.714 116.042 170.058 116.15C170.402 116.254 170.652 116.36 170.808 116.468L170.604 117.248C170.388 117.108 170.13 116.994 169.83 116.906C169.53 116.814 169.152 116.768 168.696 116.768C168.38 116.768 168.074 116.814 167.778 116.906C167.482 116.998 167.238 117.14 167.046 117.332C166.858 117.524 166.764 117.768 166.764 118.064C166.764 118.396 166.84 118.676 166.992 118.904C167.148 119.128 167.374 119.332 167.67 119.516C167.966 119.696 168.324 119.888 168.744 120.092C169.04 120.232 169.336 120.384 169.632 120.548C169.928 120.708 170.198 120.892 170.442 121.1C170.686 121.304 170.882 121.54 171.03 121.808C171.178 122.076 171.252 122.388 171.252 122.744C171.252 123.268 171.128 123.704 170.88 124.052C170.632 124.4 170.288 124.662 169.848 124.838C169.408 125.01 168.9 125.096 168.324 125.096ZM174.531 125.096C174.139 125.096 173.789 125.022 173.481 124.874C173.177 124.726 172.937 124.514 172.761 124.238C172.589 123.958 172.503 123.624 172.503 123.236C172.503 122.796 172.625 122.424 172.869 122.12C173.117 121.812 173.475 121.572 173.943 121.4C174.203 121.3 174.491 121.222 174.807 121.166C175.123 121.106 175.433 121.064 175.737 121.04C176.045 121.016 176.315 121.004 176.547 121.004L176.763 121.28L176.547 121.628C176.387 121.628 176.181 121.638 175.929 121.658C175.677 121.678 175.419 121.712 175.155 121.76C174.895 121.804 174.671 121.864 174.483 121.94C174.147 122.064 173.893 122.224 173.721 122.42C173.549 122.616 173.463 122.864 173.463 123.164C173.463 123.512 173.569 123.8 173.781 124.028C173.993 124.252 174.339 124.364 174.819 124.364C175.103 124.364 175.367 124.326 175.611 124.25C175.859 124.174 176.067 124.09 176.235 123.998C176.403 123.902 176.511 123.828 176.559 123.776L176.775 123.968L176.619 124.364C176.439 124.532 176.165 124.696 175.797 124.856C175.433 125.016 175.011 125.096 174.531 125.096ZM177.519 125H176.607V124.052L176.547 124.04V120.308C176.547 119.796 176.417 119.454 176.157 119.282C175.901 119.11 175.511 119.024 174.987 119.024C174.763 119.024 174.525 119.054 174.273 119.114C174.025 119.17 173.795 119.242 173.583 119.33C173.371 119.418 173.207 119.504 173.091 119.588L172.851 118.892C172.927 118.84 173.085 118.76 173.325 118.652C173.569 118.544 173.859 118.446 174.195 118.358C174.531 118.266 174.879 118.22 175.239 118.22C175.695 118.22 176.093 118.28 176.433 118.4C176.777 118.52 177.043 118.734 177.231 119.042C177.423 119.35 177.519 119.784 177.519 120.344V125Z" fill="#3A3A3A"/>
<path d="M190.324 125.096C189.936 125.096 189.57 125.066 189.226 125.006C188.882 124.95 188.584 124.882 188.332 124.802C188.08 124.718 187.9 124.64 187.792 124.568L188.032 123.752C188.192 123.848 188.392 123.938 188.632 124.022C188.876 124.106 189.138 124.174 189.418 124.226C189.702 124.278 189.984 124.304 190.264 124.304C190.884 124.304 191.374 124.186 191.734 123.95C192.098 123.71 192.28 123.344 192.28 122.852C192.28 122.512 192.19 122.23 192.01 122.006C191.83 121.782 191.58 121.584 191.26 121.412C190.94 121.236 190.572 121.052 190.156 120.86C189.768 120.684 189.394 120.472 189.034 120.224C188.678 119.976 188.386 119.686 188.158 119.354C187.93 119.018 187.816 118.632 187.816 118.196C187.816 117.784 187.9 117.438 188.068 117.158C188.24 116.874 188.466 116.646 188.746 116.474C189.03 116.302 189.34 116.178 189.676 116.102C190.016 116.026 190.356 115.988 190.696 115.988C191.26 115.988 191.714 116.042 192.058 116.15C192.402 116.254 192.652 116.36 192.808 116.468L192.604 117.248C192.388 117.108 192.13 116.994 191.83 116.906C191.53 116.814 191.152 116.768 190.696 116.768C190.38 116.768 190.074 116.814 189.778 116.906C189.482 116.998 189.238 117.14 189.046 117.332C188.858 117.524 188.764 117.768 188.764 118.064C188.764 118.396 188.84 118.676 188.992 118.904C189.148 119.128 189.374 119.332 189.67 119.516C189.966 119.696 190.324 119.888 190.744 120.092C191.04 120.232 191.336 120.384 191.632 120.548C191.928 120.708 192.198 120.892 192.442 121.1C192.686 121.304 192.882 121.54 193.03 121.808C193.178 122.076 193.252 122.388 193.252 122.744C193.252 123.268 193.128 123.704 192.88 124.052C192.632 124.4 192.288 124.662 191.848 124.838C191.408 125.01 190.9 125.096 190.324 125.096ZM196.735 125.096C196.307 125.096 195.963 125.028 195.703 124.892C195.443 124.752 195.247 124.556 195.115 124.304C194.983 124.048 194.893 123.746 194.845 123.398C194.801 123.05 194.779 122.664 194.779 122.24V118.316H195.751V122.276C195.751 122.836 195.793 123.26 195.877 123.548C195.965 123.836 196.109 124.03 196.309 124.13C196.509 124.23 196.783 124.28 197.131 124.28C197.355 124.28 197.585 124.248 197.821 124.184C198.057 124.12 198.275 124.04 198.475 123.944C198.679 123.848 198.843 123.752 198.967 123.656V118.316H199.951V125.072H199.567C199.411 125.072 199.289 125.048 199.201 125C199.117 124.956 199.075 124.848 199.075 124.676V124.136L199.087 124.304C198.879 124.452 198.643 124.586 198.379 124.706C198.115 124.826 197.841 124.922 197.557 124.994C197.273 125.062 196.999 125.096 196.735 125.096Z" fill="#3A3A3A"/>
<path d="M59 87.5C59 84.4624 61.4624 82 64.5 82C67.5376 82 70 84.4624 70 87.5V112H59V87.5Z" fill="#EE82EE"/>
<path d="M78 74.5C78 71.4624 80.4624 69 83.5 69C86.5376 69 89 71.4624 89 74.5V112H78V74.5Z" fill="#EE82EE"/>
<path d="M101 49.5C101 46.4624 103.462 44 106.5 44C109.538 44 112 46.4624 112 49.5V112H101V49.5Z" fill="#EE82EE"/>
<path d="M123 65.5C123 62.4624 125.462 60 128.5 60C131.538 60 134 62.4624 134 65.5V112H123V65.5Z" fill="#EE82EE"/>
<path d="M143 57.5C143 54.4624 145.462 52 148.5 52C151.538 52 154 54.4624 154 57.5V112H143V57.5Z" fill="#EE82EE"/>
<path d="M166 96.5C166 93.4624 168.462 91 171.5 91C174.538 91 177 93.4624 177 96.5V112H166V96.5Z" fill="#EE82EE"/>
<path d="M189 103.5C189 100.462 191.462 98 194.5 98C197.538 98 200 100.462 200 103.5V112H189V103.5Z" fill="#EE82EE"/>
<defs>
<filter id="filter0_d_595_21" x="0" y="0" width="262" height="146" filterUnits="userSpaceOnUse" color-interpolation-filters="sRGB">
<feFlood flood-opacity="0" result="BackgroundImageFix"/>
<feColorMatrix in="SourceAlpha" type="matrix" values="0 0 0 0 0 0 0 0 0 0 0 0 0 0 0 0 0 0 127 0" result="hardAlpha"/>
<feOffset dy="4"/>
<feGaussianBlur stdDeviation="2"/>
<feComposite in2="hardAlpha" operator="out"/>
<feColorMatrix type="matrix" values="0 0 0 0 0 0 0 0 0 0 0 0 0 0 0 0 0 0 0.25 0"/>
<feBlend mode="normal" in2="BackgroundImageFix" result="effect1_dropShadow_595_21"/>
<feBlend mode="normal" in="SourceGraphic" in2="effect1_dropShadow_595_21" result="shape"/>
</filter>
</defs>
</svg>
