<svg width="513" height="202" viewBox="0 0 513 202" fill="none" xmlns="http://www.w3.org/2000/svg">
<line x1="502.5" y1="8" x2="502.5" y2="183" stroke="#E8E8E8"/>
<line x1="33.5" y1="9" x2="33.5" y2="184" stroke="#E8E8E8"/>
<line x1="72.5" y1="9" x2="72.5" y2="184" stroke="#E8E8E8"/>
<line x1="111.5" y1="9" x2="111.5" y2="184" stroke="#E8E8E8"/>
<line x1="150.5" y1="9" x2="150.5" y2="184" stroke="#E8E8E8"/>
<line x1="189.5" y1="9" x2="189.5" y2="184" stroke="#E8E8E8"/>
<line x1="228.5" y1="9" x2="228.5" y2="184" stroke="#E8E8E8"/>
<line x1="267.5" y1="9" x2="267.5" y2="184" stroke="#E8E8E8"/>
<line x1="306.5" y1="9" x2="306.5" y2="184" stroke="#E8E8E8"/>
<line x1="345.5" y1="9" x2="345.5" y2="184" stroke="#E8E8E8"/>
<line x1="384.5" y1="9" x2="384.5" y2="184" stroke="#E8E8E8"/>
<line x1="423.5" y1="9" x2="423.5" y2="184" stroke="#E8E8E8"/>
<line x1="462.5" y1="9" x2="462.5" y2="184" stroke="#E8E8E8"/>
<line x1="32.9958" y1="183.071" x2="502" y2="180.929" stroke="#E8E8E8"/>
<line x1="33" y1="137.5" x2="502" y2="137.5" stroke="#E8E8E8"/>
<line x1="33" y1="94.5" x2="502" y2="94.5" stroke="#E8E8E8"/>
<line x1="33" y1="51.5" x2="502" y2="51.5" stroke="#E8E8E8"/>
<line x1="33" y1="8.5" x2="502" y2="8.5" stroke="#E8E8E8"/>
<path d="M62.084 198.944L61.772 198.428C62.14 198.324 62.49 198.138 62.822 197.87C63.158 197.606 63.388 197.256 63.512 196.82C63.62 196.472 63.68 196.028 63.692 195.488C63.708 194.944 63.716 194.364 63.716 193.748V188.084H64.724V193.856C64.724 194.372 64.722 194.864 64.718 195.332C64.718 195.796 64.684 196.224 64.616 196.616C64.552 196.972 64.432 197.286 64.256 197.558C64.08 197.834 63.872 198.068 63.632 198.26C63.392 198.452 63.138 198.604 62.87 198.716C62.602 198.832 62.34 198.908 62.084 198.944ZM68.7424 197.096C68.3504 197.096 68.0004 197.022 67.6924 196.874C67.3884 196.726 67.1484 196.514 66.9724 196.238C66.8004 195.958 66.7144 195.624 66.7144 195.236C66.7144 194.796 66.8364 194.424 67.0804 194.12C67.3284 193.812 67.6864 193.572 68.1544 193.4C68.4144 193.3 68.7024 193.222 69.0184 193.166C69.3344 193.106 69.6444 193.064 69.9484 193.04C70.2564 193.016 70.5264 193.004 70.7584 193.004L70.9744 193.28L70.7584 193.628C70.5984 193.628 70.3924 193.638 70.1404 193.658C69.8884 193.678 69.6304 193.712 69.3664 193.76C69.1064 193.804 68.8824 193.864 68.6944 193.94C68.3584 194.064 68.1044 194.224 67.9324 194.42C67.7604 194.616 67.6744 194.864 67.6744 195.164C67.6744 195.512 67.7804 195.8 67.9924 196.028C68.2044 196.252 68.5504 196.364 69.0304 196.364C69.3144 196.364 69.5784 196.326 69.8224 196.25C70.0704 196.174 70.2784 196.09 70.4464 195.998C70.6144 195.902 70.7224 195.828 70.7704 195.776L70.9864 195.968L70.8304 196.364C70.6504 196.532 70.3764 196.696 70.0084 196.856C69.6444 197.016 69.2224 197.096 68.7424 197.096ZM71.7304 197H70.8184V196.052L70.7584 196.04V192.308C70.7584 191.796 70.6284 191.454 70.3684 191.282C70.1124 191.11 69.7224 191.024 69.1984 191.024C68.9744 191.024 68.7364 191.054 68.4844 191.114C68.2364 191.17 68.0064 191.242 67.7944 191.33C67.5824 191.418 67.4184 191.504 67.3024 191.588L67.0624 190.892C67.1384 190.84 67.2964 190.76 67.5364 190.652C67.7804 190.544 68.0704 190.446 68.4064 190.358C68.7424 190.266 69.0904 190.22 69.4504 190.22C69.9064 190.22 70.3044 190.28 70.6444 190.4C70.9884 190.52 71.2544 190.734 71.4424 191.042C71.6344 191.35 71.7304 191.784 71.7304 192.344V197ZM73.9215 197V190.328H74.7975V191.18C74.9575 191.06 75.1675 190.928 75.4275 190.784C75.6915 190.636 75.9815 190.508 76.2975 190.4C76.6135 190.288 76.9335 190.228 77.2575 190.22C77.9855 190.208 78.5015 190.402 78.8055 190.802C79.1095 191.198 79.2615 191.888 79.2615 192.872V197H78.2775V192.86C78.2775 192.2 78.1835 191.726 77.9955 191.438C77.8075 191.146 77.4255 191.012 76.8495 191.036C76.6415 191.04 76.4195 191.082 76.1835 191.162C75.9475 191.242 75.7175 191.344 75.4935 191.468C75.2695 191.592 75.0735 191.72 74.9055 191.852V197H73.9215Z" fill="#3A3A3A"/>
<path d="M103.128 197V188.084H108.108V188.852H104.112V192.14H107.1V192.908H104.112V197H103.128ZM111.458 197.096C110.522 197.096 109.804 196.796 109.304 196.196C108.804 195.592 108.554 194.756 108.554 193.688C108.554 193.02 108.67 192.428 108.902 191.912C109.134 191.392 109.472 190.984 109.916 190.688C110.36 190.388 110.902 190.236 111.542 190.232C111.898 190.224 112.22 190.28 112.508 190.4C112.8 190.516 113.05 190.686 113.258 190.91C113.47 191.13 113.634 191.396 113.75 191.708C113.87 192.016 113.934 192.36 113.942 192.74C113.942 192.948 113.94 193.136 113.936 193.304C113.932 193.468 113.918 193.62 113.894 193.76H109.142L109.226 193.1H113.018C113.042 192.692 113.008 192.324 112.916 191.996C112.828 191.668 112.668 191.408 112.436 191.216C112.204 191.024 111.886 190.928 111.482 190.928C111.098 190.928 110.754 191.032 110.45 191.24C110.146 191.444 109.908 191.772 109.736 192.224C109.568 192.676 109.494 193.268 109.514 194C109.534 194.572 109.64 195.03 109.832 195.374C110.024 195.718 110.282 195.968 110.606 196.124C110.93 196.276 111.298 196.352 111.71 196.352C111.914 196.352 112.132 196.326 112.364 196.274C112.6 196.222 112.82 196.158 113.024 196.082C113.232 196.002 113.394 195.924 113.51 195.848L113.714 196.484C113.57 196.604 113.374 196.71 113.126 196.802C112.878 196.894 112.606 196.966 112.31 197.018C112.018 197.07 111.734 197.096 111.458 197.096ZM115.702 187.268H116.65V190.052L116.602 191.192L116.65 191.228V196.196L115.702 196.628V187.268ZM117.946 197.096C117.702 197.096 117.458 197.078 117.214 197.042C116.974 197.01 116.75 196.97 116.542 196.922C116.334 196.87 116.156 196.818 116.008 196.766C115.86 196.714 115.758 196.668 115.702 196.628L116.65 196.088C116.766 196.172 116.95 196.242 117.202 196.298C117.458 196.35 117.742 196.376 118.054 196.376C118.446 196.376 118.812 196.272 119.152 196.064C119.496 195.856 119.774 195.544 119.986 195.128C120.198 194.708 120.306 194.18 120.31 193.544C120.318 192.716 120.16 192.086 119.836 191.654C119.512 191.218 119.034 191 118.402 191C118.03 191 117.684 191.076 117.364 191.228C117.048 191.38 116.806 191.532 116.638 191.684L116.482 191.18C116.586 191.072 116.732 190.944 116.92 190.796C117.108 190.644 117.346 190.512 117.634 190.4C117.922 190.288 118.266 190.232 118.666 190.232C119.154 190.232 119.598 190.35 119.998 190.586C120.398 190.818 120.716 191.17 120.952 191.642C121.188 192.11 121.306 192.7 121.306 193.412C121.306 194.14 121.164 194.782 120.88 195.338C120.6 195.89 120.208 196.322 119.704 196.634C119.2 196.942 118.614 197.096 117.946 197.096Z" fill="#3A3A3A"/>
<path d="M142.876 197L143.824 188.084H145.228L147.208 193.88L147.64 195.548L148.072 193.88L149.932 188.084H151.264L152.416 197H151.42L150.796 191.456L150.532 188.816L149.812 191.456L147.916 197.084H147.376L145.384 191.456L144.592 188.816L144.364 191.456L143.836 197H142.876ZM155.961 197.096C155.569 197.096 155.219 197.022 154.911 196.874C154.607 196.726 154.367 196.514 154.191 196.238C154.019 195.958 153.933 195.624 153.933 195.236C153.933 194.796 154.055 194.424 154.299 194.12C154.547 193.812 154.905 193.572 155.373 193.4C155.633 193.3 155.921 193.222 156.237 193.166C156.553 193.106 156.863 193.064 157.167 193.04C157.475 193.016 157.745 193.004 157.977 193.004L158.193 193.28L157.977 193.628C157.817 193.628 157.611 193.638 157.359 193.658C157.107 193.678 156.849 193.712 156.585 193.76C156.325 193.804 156.101 193.864 155.913 193.94C155.577 194.064 155.323 194.224 155.151 194.42C154.979 194.616 154.893 194.864 154.893 195.164C154.893 195.512 154.999 195.8 155.211 196.028C155.423 196.252 155.769 196.364 156.249 196.364C156.533 196.364 156.797 196.326 157.041 196.25C157.289 196.174 157.497 196.09 157.665 195.998C157.833 195.902 157.941 195.828 157.989 195.776L158.205 195.968L158.049 196.364C157.869 196.532 157.595 196.696 157.227 196.856C156.863 197.016 156.441 197.096 155.961 197.096ZM158.949 197H158.037V196.052L157.977 196.04V192.308C157.977 191.796 157.847 191.454 157.587 191.282C157.331 191.11 156.941 191.024 156.417 191.024C156.193 191.024 155.955 191.054 155.703 191.114C155.455 191.17 155.225 191.242 155.013 191.33C154.801 191.418 154.637 191.504 154.521 191.588L154.281 190.892C154.357 190.84 154.515 190.76 154.755 190.652C154.999 190.544 155.289 190.446 155.625 190.358C155.961 190.266 156.309 190.22 156.669 190.22C157.125 190.22 157.523 190.28 157.863 190.4C158.207 190.52 158.473 190.734 158.661 191.042C158.853 191.35 158.949 191.784 158.949 192.344V197ZM161.944 191.924L161.872 191.276C161.94 191.164 162.08 191.026 162.292 190.862C162.504 190.698 162.756 190.552 163.048 190.424C163.34 190.296 163.64 190.232 163.948 190.232C164.1 190.232 164.228 190.238 164.332 190.25C164.44 190.262 164.524 190.28 164.584 190.304V191.228C164.524 191.196 164.434 191.164 164.314 191.132C164.198 191.1 164.016 191.084 163.768 191.084C163.496 191.084 163.24 191.132 163 191.228C162.764 191.32 162.554 191.432 162.37 191.564C162.19 191.692 162.048 191.812 161.944 191.924ZM161.02 197V190.328H161.86L161.92 191.276L162.004 191.696V197H161.02Z" fill="#3A3A3A"/>
<path d="M183.236 197H182.192L185.636 187.988H186.608L189.98 197H188.924L186.368 189.74L186.128 189.032L185.888 189.74L183.236 197ZM183.74 194.552L183.92 193.808H188.144L188.336 194.552H183.74ZM191.248 199.964V190.316H192.136V191.168L192.22 191.288V196.58L192.208 196.712L192.22 197.816V199.964H191.248ZM193.516 197.096C193.084 197.096 192.718 197.044 192.418 196.94C192.118 196.836 191.932 196.752 191.86 196.688L192.22 196.04C192.328 196.136 192.494 196.216 192.718 196.28C192.946 196.344 193.24 196.376 193.6 196.376C194.028 196.376 194.412 196.266 194.752 196.046C195.092 195.826 195.36 195.508 195.556 195.092C195.756 194.676 195.86 194.172 195.868 193.58C195.876 192.708 195.71 192.06 195.37 191.636C195.03 191.212 194.56 191 193.96 191C193.572 191 193.226 191.078 192.922 191.234C192.618 191.39 192.384 191.54 192.22 191.684L192.064 191.18C192.16 191.08 192.298 190.956 192.478 190.808C192.658 190.656 192.89 190.522 193.174 190.406C193.462 190.29 193.812 190.232 194.224 190.232C194.68 190.232 195.108 190.342 195.508 190.562C195.912 190.782 196.238 191.13 196.486 191.606C196.738 192.078 196.864 192.692 196.864 193.448C196.864 194.156 196.724 194.784 196.444 195.332C196.168 195.88 195.778 196.312 195.274 196.628C194.774 196.94 194.188 197.096 193.516 197.096ZM199.425 191.924L199.353 191.276C199.421 191.164 199.561 191.026 199.773 190.862C199.985 190.698 200.237 190.552 200.529 190.424C200.821 190.296 201.121 190.232 201.429 190.232C201.581 190.232 201.709 190.238 201.813 190.25C201.921 190.262 202.005 190.28 202.065 190.304V191.228C202.005 191.196 201.915 191.164 201.795 191.132C201.679 191.1 201.497 191.084 201.249 191.084C200.977 191.084 200.721 191.132 200.481 191.228C200.245 191.32 200.035 191.432 199.851 191.564C199.671 191.692 199.529 191.812 199.425 191.924ZM198.501 197V190.328H199.341L199.401 191.276L199.485 191.696V197H198.501Z" fill="#3A3A3A"/>
<path d="M217.876 197L218.824 188.084H220.228L222.208 193.88L222.64 195.548L223.072 193.88L224.932 188.084H226.264L227.416 197H226.42L225.796 191.456L225.532 188.816L224.812 191.456L222.916 197.084H222.376L220.384 191.456L219.592 188.816L219.364 191.456L218.836 197H217.876ZM230.961 197.096C230.569 197.096 230.219 197.022 229.911 196.874C229.607 196.726 229.367 196.514 229.191 196.238C229.019 195.958 228.933 195.624 228.933 195.236C228.933 194.796 229.055 194.424 229.299 194.12C229.547 193.812 229.905 193.572 230.373 193.4C230.633 193.3 230.921 193.222 231.237 193.166C231.553 193.106 231.863 193.064 232.167 193.04C232.475 193.016 232.745 193.004 232.977 193.004L233.193 193.28L232.977 193.628C232.817 193.628 232.611 193.638 232.359 193.658C232.107 193.678 231.849 193.712 231.585 193.76C231.325 193.804 231.101 193.864 230.913 193.94C230.577 194.064 230.323 194.224 230.151 194.42C229.979 194.616 229.893 194.864 229.893 195.164C229.893 195.512 229.999 195.8 230.211 196.028C230.423 196.252 230.769 196.364 231.249 196.364C231.533 196.364 231.797 196.326 232.041 196.25C232.289 196.174 232.497 196.09 232.665 195.998C232.833 195.902 232.941 195.828 232.989 195.776L233.205 195.968L233.049 196.364C232.869 196.532 232.595 196.696 232.227 196.856C231.863 197.016 231.441 197.096 230.961 197.096ZM233.949 197H233.037V196.052L232.977 196.04V192.308C232.977 191.796 232.847 191.454 232.587 191.282C232.331 191.11 231.941 191.024 231.417 191.024C231.193 191.024 230.955 191.054 230.703 191.114C230.455 191.17 230.225 191.242 230.013 191.33C229.801 191.418 229.637 191.504 229.521 191.588L229.281 190.892C229.357 190.84 229.515 190.76 229.755 190.652C229.999 190.544 230.289 190.446 230.625 190.358C230.961 190.266 231.309 190.22 231.669 190.22C232.125 190.22 232.523 190.28 232.863 190.4C233.207 190.52 233.473 190.734 233.661 191.042C233.853 191.35 233.949 191.784 233.949 192.344V197ZM235.84 199.892V199.088C235.9 199.104 235.99 199.12 236.11 199.136C236.23 199.152 236.332 199.16 236.416 199.16C236.648 199.16 236.88 199.096 237.112 198.968C237.344 198.84 237.562 198.61 237.766 198.278C237.97 197.95 238.144 197.48 238.288 196.868L238.372 197H237.964L235.456 190.316H236.5L238.108 194.9L238.708 196.676H238.42L238.936 194.9L240.328 190.316H241.384L239.092 197.168C238.828 197.964 238.538 198.586 238.222 199.034C237.906 199.486 237.528 199.772 237.088 199.892C237.004 199.916 236.906 199.936 236.794 199.952C236.682 199.968 236.58 199.976 236.488 199.976C236.428 199.976 236.35 199.972 236.254 199.964C236.162 199.956 236.074 199.946 235.99 199.934C235.91 199.922 235.86 199.908 235.84 199.892Z" fill="#3A3A3A"/>
<path d="M259.084 198.944L258.772 198.428C259.14 198.324 259.49 198.138 259.822 197.87C260.158 197.606 260.388 197.256 260.512 196.82C260.62 196.472 260.68 196.028 260.692 195.488C260.708 194.944 260.716 194.364 260.716 193.748V188.084H261.724V193.856C261.724 194.372 261.722 194.864 261.718 195.332C261.718 195.796 261.684 196.224 261.616 196.616C261.552 196.972 261.432 197.286 261.256 197.558C261.08 197.834 260.872 198.068 260.632 198.26C260.392 198.452 260.138 198.604 259.87 198.716C259.602 198.832 259.34 198.908 259.084 198.944ZM265.946 197.096C265.518 197.096 265.174 197.028 264.914 196.892C264.654 196.752 264.458 196.556 264.326 196.304C264.194 196.048 264.104 195.746 264.056 195.398C264.012 195.05 263.99 194.664 263.99 194.24V190.316H264.962V194.276C264.962 194.836 265.004 195.26 265.088 195.548C265.176 195.836 265.32 196.03 265.52 196.13C265.72 196.23 265.994 196.28 266.342 196.28C266.566 196.28 266.796 196.248 267.032 196.184C267.268 196.12 267.486 196.04 267.686 195.944C267.89 195.848 268.054 195.752 268.178 195.656V190.316H269.162V197.072H268.778C268.622 197.072 268.5 197.048 268.412 197C268.328 196.956 268.286 196.848 268.286 196.676V196.136L268.298 196.304C268.09 196.452 267.854 196.586 267.59 196.706C267.326 196.826 267.052 196.922 266.768 196.994C266.484 197.062 266.21 197.096 265.946 197.096ZM271.39 197V190.328H272.266V191.18C272.426 191.06 272.636 190.928 272.896 190.784C273.16 190.636 273.45 190.508 273.766 190.4C274.082 190.288 274.402 190.228 274.726 190.22C275.454 190.208 275.97 190.402 276.274 190.802C276.578 191.198 276.73 191.888 276.73 192.872V197H275.746V192.86C275.746 192.2 275.652 191.726 275.464 191.438C275.276 191.146 274.894 191.012 274.318 191.036C274.11 191.04 273.888 191.082 273.652 191.162C273.416 191.242 273.186 191.344 272.962 191.468C272.738 191.592 272.542 191.72 272.374 191.852V197H271.39Z" fill="#3A3A3A"/>
<path d="M299.084 198.944L298.772 198.428C299.14 198.324 299.49 198.138 299.822 197.87C300.158 197.606 300.388 197.256 300.512 196.82C300.62 196.472 300.68 196.028 300.692 195.488C300.708 194.944 300.716 194.364 300.716 193.748V188.084H301.724V193.856C301.724 194.372 301.722 194.864 301.718 195.332C301.718 195.796 301.684 196.224 301.616 196.616C301.552 196.972 301.432 197.286 301.256 197.558C301.08 197.834 300.872 198.068 300.632 198.26C300.392 198.452 300.138 198.604 299.87 198.716C299.602 198.832 299.34 198.908 299.084 198.944ZM305.946 197.096C305.518 197.096 305.174 197.028 304.914 196.892C304.654 196.752 304.458 196.556 304.326 196.304C304.194 196.048 304.104 195.746 304.056 195.398C304.012 195.05 303.99 194.664 303.99 194.24V190.316H304.962V194.276C304.962 194.836 305.004 195.26 305.088 195.548C305.176 195.836 305.32 196.03 305.52 196.13C305.72 196.23 305.994 196.28 306.342 196.28C306.566 196.28 306.796 196.248 307.032 196.184C307.268 196.12 307.486 196.04 307.686 195.944C307.89 195.848 308.054 195.752 308.178 195.656V190.316H309.162V197.072H308.778C308.622 197.072 308.5 197.048 308.412 197C308.328 196.956 308.286 196.848 308.286 196.676V196.136L308.298 196.304C308.09 196.452 307.854 196.586 307.59 196.706C307.326 196.826 307.052 196.922 306.768 196.994C306.484 197.062 306.21 197.096 305.946 197.096ZM311.378 197V187.244H312.362V197H311.378Z" fill="#3A3A3A"/>
<path d="M336.236 197H335.192L338.636 187.988H339.608L342.98 197H341.924L339.368 189.74L339.128 189.032L338.888 189.74L336.236 197ZM336.74 194.552L336.92 193.808H341.144L341.336 194.552H336.74ZM345.919 197.096C345.491 197.096 345.147 197.028 344.887 196.892C344.627 196.752 344.431 196.556 344.299 196.304C344.167 196.048 344.077 195.746 344.029 195.398C343.985 195.05 343.963 194.664 343.963 194.24V190.316H344.935V194.276C344.935 194.836 344.977 195.26 345.061 195.548C345.149 195.836 345.293 196.03 345.493 196.13C345.693 196.23 345.967 196.28 346.315 196.28C346.539 196.28 346.769 196.248 347.005 196.184C347.241 196.12 347.459 196.04 347.659 195.944C347.863 195.848 348.027 195.752 348.151 195.656V190.316H349.135V197.072H348.751C348.595 197.072 348.473 197.048 348.385 197C348.301 196.956 348.259 196.848 348.259 196.676V196.136L348.271 196.304C348.063 196.452 347.827 196.586 347.563 196.706C347.299 196.826 347.025 196.922 346.741 196.994C346.457 197.062 346.183 197.096 345.919 197.096ZM353.619 200.024C352.775 200.024 352.097 199.876 351.585 199.58C351.077 199.284 350.823 198.804 350.823 198.14C350.823 197.888 350.883 197.662 351.003 197.462C351.123 197.262 351.265 197.094 351.429 196.958C351.597 196.822 351.751 196.724 351.891 196.664L352.551 196.76C352.455 196.828 352.347 196.916 352.227 197.024C352.107 197.132 352.003 197.266 351.915 197.426C351.827 197.59 351.783 197.788 351.783 198.02C351.783 198.332 351.851 198.586 351.987 198.782C352.123 198.978 352.329 199.122 352.605 199.214C352.881 199.306 353.231 199.352 353.655 199.352C354.039 199.352 354.403 199.306 354.747 199.214C355.091 199.126 355.371 198.988 355.587 198.8C355.803 198.616 355.911 198.38 355.911 198.092C355.911 197.836 355.855 197.628 355.743 197.468C355.635 197.308 355.451 197.19 355.191 197.114C354.935 197.038 354.587 197 354.147 197H353.247C353.015 197 352.807 196.99 352.623 196.97C352.443 196.95 352.287 196.928 352.155 196.904C352.119 196.896 352.083 196.882 352.047 196.862C352.011 196.838 351.975 196.82 351.939 196.808C351.647 196.712 351.459 196.562 351.375 196.358C351.295 196.154 351.255 195.944 351.255 195.728C351.255 195.572 351.299 195.414 351.387 195.254C351.475 195.09 351.591 194.934 351.735 194.786C351.879 194.634 352.035 194.5 352.203 194.384L352.827 194.564C352.695 194.624 352.547 194.742 352.383 194.918C352.223 195.094 352.143 195.284 352.143 195.488C352.143 195.768 352.215 195.962 352.359 196.07C352.503 196.178 352.751 196.232 353.103 196.232H354.555C355.031 196.232 355.419 196.278 355.719 196.37C356.019 196.462 356.251 196.588 356.415 196.748C356.579 196.904 356.691 197.08 356.751 197.276C356.815 197.472 356.847 197.676 356.847 197.888C356.847 198.216 356.763 198.512 356.595 198.776C356.431 199.04 356.201 199.264 355.905 199.448C355.609 199.636 355.265 199.778 354.873 199.874C354.485 199.974 354.067 200.024 353.619 200.024ZM353.595 194.768C353.115 194.768 352.681 194.678 352.293 194.498C351.909 194.314 351.603 194.058 351.375 193.73C351.151 193.398 351.039 193.008 351.039 192.56C351.039 192.032 351.155 191.598 351.387 191.258C351.623 190.918 351.937 190.664 352.329 190.496C352.721 190.328 353.155 190.24 353.631 190.232C354.095 190.22 354.525 190.292 354.921 190.448C355.317 190.604 355.635 190.848 355.875 191.18C356.115 191.508 356.235 191.928 356.235 192.44C356.235 192.944 356.117 193.37 355.881 193.718C355.645 194.062 355.327 194.324 354.927 194.504C354.527 194.68 354.083 194.768 353.595 194.768ZM353.607 194.12C354.095 194.12 354.493 193.994 354.801 193.742C355.109 193.49 355.263 193.068 355.263 192.476C355.263 191.94 355.121 191.542 354.837 191.282C354.557 191.022 354.171 190.892 353.679 190.892C353.391 190.896 353.119 190.946 352.863 191.042C352.611 191.138 352.405 191.304 352.245 191.54C352.089 191.772 352.011 192.096 352.011 192.512C352.011 192.968 352.147 193.35 352.419 193.658C352.691 193.966 353.087 194.12 353.607 194.12ZM355.467 191.12L355.119 190.736C355.211 190.644 355.399 190.556 355.683 190.472C355.967 190.384 356.259 190.34 356.559 190.34H357.111V191.12H355.467Z" fill="#3A3A3A"/>
<path d="M378.324 197.096C377.936 197.096 377.57 197.066 377.226 197.006C376.882 196.95 376.584 196.882 376.332 196.802C376.08 196.718 375.9 196.64 375.792 196.568L376.032 195.752C376.192 195.848 376.392 195.938 376.632 196.022C376.876 196.106 377.138 196.174 377.418 196.226C377.702 196.278 377.984 196.304 378.264 196.304C378.884 196.304 379.374 196.186 379.734 195.95C380.098 195.71 380.28 195.344 380.28 194.852C380.28 194.512 380.19 194.23 380.01 194.006C379.83 193.782 379.58 193.584 379.26 193.412C378.94 193.236 378.572 193.052 378.156 192.86C377.768 192.684 377.394 192.472 377.034 192.224C376.678 191.976 376.386 191.686 376.158 191.354C375.93 191.018 375.816 190.632 375.816 190.196C375.816 189.784 375.9 189.438 376.068 189.158C376.24 188.874 376.466 188.646 376.746 188.474C377.03 188.302 377.34 188.178 377.676 188.102C378.016 188.026 378.356 187.988 378.696 187.988C379.26 187.988 379.714 188.042 380.058 188.15C380.402 188.254 380.652 188.36 380.808 188.468L380.604 189.248C380.388 189.108 380.13 188.994 379.83 188.906C379.53 188.814 379.152 188.768 378.696 188.768C378.38 188.768 378.074 188.814 377.778 188.906C377.482 188.998 377.238 189.14 377.046 189.332C376.858 189.524 376.764 189.768 376.764 190.064C376.764 190.396 376.84 190.676 376.992 190.904C377.148 191.128 377.374 191.332 377.67 191.516C377.966 191.696 378.324 191.888 378.744 192.092C379.04 192.232 379.336 192.384 379.632 192.548C379.928 192.708 380.198 192.892 380.442 193.1C380.686 193.304 380.882 193.54 381.03 193.808C381.178 194.076 381.252 194.388 381.252 194.744C381.252 195.268 381.128 195.704 380.88 196.052C380.632 196.4 380.288 196.662 379.848 196.838C379.408 197.01 378.9 197.096 378.324 197.096ZM385.395 197.096C384.459 197.096 383.741 196.796 383.241 196.196C382.741 195.592 382.491 194.756 382.491 193.688C382.491 193.02 382.607 192.428 382.839 191.912C383.071 191.392 383.409 190.984 383.853 190.688C384.297 190.388 384.839 190.236 385.479 190.232C385.835 190.224 386.157 190.28 386.445 190.4C386.737 190.516 386.987 190.686 387.195 190.91C387.407 191.13 387.571 191.396 387.687 191.708C387.807 192.016 387.871 192.36 387.879 192.74C387.879 192.948 387.877 193.136 387.873 193.304C387.869 193.468 387.855 193.62 387.831 193.76H383.079L383.163 193.1H386.955C386.979 192.692 386.945 192.324 386.853 191.996C386.765 191.668 386.605 191.408 386.373 191.216C386.141 191.024 385.823 190.928 385.419 190.928C385.035 190.928 384.691 191.032 384.387 191.24C384.083 191.444 383.845 191.772 383.673 192.224C383.505 192.676 383.431 193.268 383.451 194C383.471 194.572 383.577 195.03 383.769 195.374C383.961 195.718 384.219 195.968 384.543 196.124C384.867 196.276 385.235 196.352 385.647 196.352C385.851 196.352 386.069 196.326 386.301 196.274C386.537 196.222 386.757 196.158 386.961 196.082C387.169 196.002 387.331 195.924 387.447 195.848L387.651 196.484C387.507 196.604 387.311 196.71 387.063 196.802C386.815 196.894 386.543 196.966 386.247 197.018C385.955 197.07 385.671 197.096 385.395 197.096ZM389.604 199.964V190.316H390.492V191.168L390.576 191.288V196.58L390.564 196.712L390.576 197.816V199.964H389.604ZM391.872 197.096C391.44 197.096 391.074 197.044 390.774 196.94C390.474 196.836 390.288 196.752 390.216 196.688L390.576 196.04C390.684 196.136 390.85 196.216 391.074 196.28C391.302 196.344 391.596 196.376 391.956 196.376C392.384 196.376 392.768 196.266 393.108 196.046C393.448 195.826 393.716 195.508 393.912 195.092C394.112 194.676 394.216 194.172 394.224 193.58C394.232 192.708 394.066 192.06 393.726 191.636C393.386 191.212 392.916 191 392.316 191C391.928 191 391.582 191.078 391.278 191.234C390.974 191.39 390.74 191.54 390.576 191.684L390.42 191.18C390.516 191.08 390.654 190.956 390.834 190.808C391.014 190.656 391.246 190.522 391.53 190.406C391.818 190.29 392.168 190.232 392.58 190.232C393.036 190.232 393.464 190.342 393.864 190.562C394.268 190.782 394.594 191.13 394.842 191.606C395.094 192.078 395.22 192.692 395.22 193.448C395.22 194.156 395.08 194.784 394.8 195.332C394.524 195.88 394.134 196.312 393.63 196.628C393.13 196.94 392.544 197.096 391.872 197.096Z" fill="#3A3A3A"/>
<path d="M418.524 197.096C417.704 197.112 416.998 196.924 416.406 196.532C415.814 196.136 415.36 195.59 415.044 194.894C414.732 194.194 414.584 193.396 414.6 192.5C414.62 191.508 414.814 190.678 415.182 190.01C415.554 189.342 416.046 188.84 416.658 188.504C417.27 188.164 417.952 187.992 418.704 187.988C419.488 187.984 420.168 188.17 420.744 188.546C421.324 188.922 421.768 189.452 422.076 190.136C422.384 190.816 422.528 191.612 422.508 192.524C422.488 193.512 422.304 194.344 421.956 195.02C421.608 195.692 421.136 196.202 420.54 196.55C419.948 196.898 419.276 197.08 418.524 197.096ZM418.548 196.328C419.432 196.32 420.144 195.988 420.684 195.332C421.224 194.676 421.5 193.724 421.512 192.476C421.512 191.792 421.404 191.168 421.188 190.604C420.976 190.036 420.658 189.584 420.234 189.248C419.814 188.908 419.292 188.74 418.668 188.744C418.096 188.748 417.58 188.892 417.12 189.176C416.66 189.456 416.294 189.878 416.022 190.442C415.75 191.006 415.612 191.712 415.608 192.56C415.604 193.24 415.712 193.866 415.932 194.438C416.152 195.01 416.48 195.47 416.916 195.818C417.356 196.162 417.9 196.332 418.548 196.328ZM423.729 193.76C423.725 193.088 423.843 192.486 424.083 191.954C424.327 191.422 424.683 191.002 425.151 190.694C425.623 190.386 426.197 190.232 426.873 190.232C427.269 190.232 427.609 190.268 427.893 190.34C428.181 190.412 428.385 190.488 428.505 190.568L428.337 191.348C428.169 191.228 427.953 191.138 427.689 191.078C427.425 191.018 427.137 190.988 426.825 190.988C426.461 190.988 426.119 191.082 425.799 191.27C425.479 191.454 425.215 191.738 425.007 192.122C424.803 192.502 424.693 192.984 424.677 193.568C424.661 194.192 424.749 194.71 424.941 195.122C425.133 195.534 425.389 195.842 425.709 196.046C426.033 196.25 426.385 196.352 426.765 196.352C427.149 196.352 427.489 196.298 427.785 196.19C428.081 196.082 428.301 195.984 428.445 195.896L428.649 196.46C428.441 196.652 428.155 196.806 427.791 196.922C427.431 197.038 427.037 197.096 426.609 197.096C425.997 197.096 425.475 196.95 425.043 196.658C424.615 196.366 424.289 195.97 424.065 195.47C423.841 194.966 423.729 194.396 423.729 193.76ZM431.986 197.096C431.714 197.096 431.462 197.056 431.23 196.976C430.998 196.892 430.812 196.73 430.672 196.49C430.532 196.25 430.462 195.892 430.462 195.416V191.06H429.538V190.52C429.754 190.46 429.964 190.41 430.168 190.37C430.376 190.326 430.506 190.236 430.558 190.1C430.582 190.032 430.608 189.92 430.636 189.764C430.668 189.604 430.7 189.436 430.732 189.26C430.768 189.08 430.806 188.924 430.846 188.792H431.434V190.316H433.51V191.06H431.434V194.864C431.434 195.308 431.462 195.632 431.518 195.836C431.574 196.036 431.666 196.164 431.794 196.22C431.926 196.276 432.102 196.304 432.322 196.304C432.458 196.304 432.61 196.288 432.778 196.256C432.946 196.22 433.102 196.178 433.246 196.13C433.394 196.078 433.506 196.028 433.582 195.98L433.75 196.544C433.638 196.636 433.482 196.724 433.282 196.808C433.082 196.892 432.866 196.96 432.634 197.012C432.406 197.068 432.19 197.096 431.986 197.096Z" fill="#3A3A3A"/>
<path d="M453.128 197V188.084H454.052L458.156 194.288L459.356 196.388H459.008L458.924 193.916V188.084H459.824V197H458.924L454.892 190.94L453.56 188.672H453.956L454.04 191.312V197H453.128ZM464.481 197.096C463.949 197.096 463.497 197 463.125 196.808C462.753 196.616 462.451 196.354 462.219 196.022C461.987 195.69 461.819 195.31 461.715 194.882C461.611 194.454 461.561 194.004 461.565 193.532C461.577 192.824 461.717 192.224 461.985 191.732C462.257 191.24 462.619 190.868 463.071 190.616C463.527 190.36 464.037 190.232 464.601 190.232C465.297 190.232 465.859 190.394 466.287 190.718C466.719 191.042 467.031 191.472 467.223 192.008C467.419 192.54 467.513 193.12 467.505 193.748C467.493 194.46 467.355 195.066 467.091 195.566C466.831 196.062 466.475 196.442 466.023 196.706C465.571 196.966 465.057 197.096 464.481 197.096ZM464.505 196.4C465.141 196.404 465.633 196.166 465.981 195.686C466.333 195.202 466.509 194.544 466.509 193.712C466.513 193.2 466.447 192.736 466.311 192.32C466.175 191.9 465.965 191.566 465.681 191.318C465.397 191.07 465.033 190.944 464.589 190.94C463.961 190.928 463.467 191.15 463.107 191.606C462.751 192.062 462.569 192.708 462.561 193.544C462.561 194.052 462.629 194.522 462.765 194.954C462.901 195.382 463.111 195.728 463.395 195.992C463.683 196.256 464.053 196.392 464.505 196.4ZM470.888 197.108L468.212 190.316H469.268L470.78 194.468L471.464 196.544H471.176L471.8 194.468L473.264 190.316H474.308L471.716 197.108H470.888Z" fill="#3A3A3A"/>
<path d="M492.128 197V188.084C492.148 188.084 492.21 188.084 492.314 188.084C492.418 188.084 492.522 188.084 492.626 188.084C492.734 188.08 492.8 188.076 492.824 188.072C493.012 188.072 493.214 188.066 493.43 188.054C493.65 188.042 493.876 188.03 494.108 188.018C494.34 188.006 494.572 188 494.804 188C496.22 188 497.278 188.376 497.978 189.128C498.678 189.88 499.028 190.932 499.028 192.284C499.028 193.26 498.858 194.112 498.518 194.84C498.178 195.564 497.682 196.124 497.03 196.52C496.382 196.916 495.596 197.108 494.672 197.096C494.42 197.088 494.116 197.072 493.76 197.048C493.404 197.024 493.076 197.012 492.776 197.012C492.736 197.008 492.666 197.004 492.566 197C492.466 197 492.37 197 492.278 197C492.19 197 492.14 197 492.128 197ZM493.112 196.244C493.34 196.28 493.616 196.308 493.94 196.328C494.268 196.348 494.56 196.356 494.816 196.352C495.44 196.344 495.99 196.202 496.466 195.926C496.942 195.646 497.314 195.218 497.582 194.642C497.854 194.066 497.992 193.328 497.996 192.428C498 191.556 497.874 190.848 497.618 190.304C497.362 189.756 496.98 189.356 496.472 189.104C495.964 188.848 495.332 188.72 494.576 188.72C494.296 188.72 494.032 188.728 493.784 188.744C493.54 188.76 493.316 188.78 493.112 188.804V196.244ZM503.118 197.096C502.182 197.096 501.464 196.796 500.964 196.196C500.464 195.592 500.214 194.756 500.214 193.688C500.214 193.02 500.33 192.428 500.562 191.912C500.794 191.392 501.132 190.984 501.576 190.688C502.02 190.388 502.562 190.236 503.202 190.232C503.558 190.224 503.88 190.28 504.168 190.4C504.46 190.516 504.71 190.686 504.918 190.91C505.13 191.13 505.294 191.396 505.41 191.708C505.53 192.016 505.594 192.36 505.602 192.74C505.602 192.948 505.6 193.136 505.596 193.304C505.592 193.468 505.578 193.62 505.554 193.76H500.802L500.886 193.1H504.678C504.702 192.692 504.668 192.324 504.576 191.996C504.488 191.668 504.328 191.408 504.096 191.216C503.864 191.024 503.546 190.928 503.142 190.928C502.758 190.928 502.414 191.032 502.11 191.24C501.806 191.444 501.568 191.772 501.396 192.224C501.228 192.676 501.154 193.268 501.174 194C501.194 194.572 501.3 195.03 501.492 195.374C501.684 195.718 501.942 195.968 502.266 196.124C502.59 196.276 502.958 196.352 503.37 196.352C503.574 196.352 503.792 196.326 504.024 196.274C504.26 196.222 504.48 196.158 504.684 196.082C504.892 196.002 505.054 195.924 505.17 195.848L505.374 196.484C505.23 196.604 505.034 196.71 504.786 196.802C504.538 196.894 504.266 196.966 503.97 197.018C503.678 197.07 503.394 197.096 503.118 197.096ZM506.858 193.76C506.854 193.088 506.972 192.486 507.212 191.954C507.456 191.422 507.812 191.002 508.28 190.694C508.752 190.386 509.326 190.232 510.002 190.232C510.398 190.232 510.738 190.268 511.022 190.34C511.31 190.412 511.514 190.488 511.634 190.568L511.466 191.348C511.298 191.228 511.082 191.138 510.818 191.078C510.554 191.018 510.266 190.988 509.954 190.988C509.59 190.988 509.248 191.082 508.928 191.27C508.608 191.454 508.344 191.738 508.136 192.122C507.932 192.502 507.822 192.984 507.806 193.568C507.79 194.192 507.878 194.71 508.07 195.122C508.262 195.534 508.518 195.842 508.838 196.046C509.162 196.25 509.514 196.352 509.894 196.352C510.278 196.352 510.618 196.298 510.914 196.19C511.21 196.082 511.43 195.984 511.574 195.896L511.778 196.46C511.57 196.652 511.284 196.806 510.92 196.922C510.56 197.038 510.166 197.096 509.738 197.096C509.126 197.096 508.604 196.95 508.172 196.658C507.744 196.366 507.418 195.97 507.194 195.47C506.97 194.966 506.858 194.396 506.858 193.76Z" fill="#3A3A3A"/>
<path d="M15.996 188.072C15.46 188.072 14.994 187.946 14.598 187.694C14.206 187.438 13.88 187.092 13.62 186.656C13.364 186.22 13.176 185.724 13.056 185.168C12.936 184.608 12.88 184.024 12.888 183.416C12.9 182.508 13.044 181.722 13.32 181.058C13.596 180.39 13.976 179.874 14.46 179.51C14.944 179.146 15.504 178.964 16.14 178.964C16.688 178.964 17.156 179.082 17.544 179.318C17.936 179.55 18.254 179.872 18.498 180.284C18.742 180.696 18.92 181.174 19.032 181.718C19.144 182.262 19.196 182.844 19.188 183.464C19.18 184.368 19.046 185.166 18.786 185.858C18.526 186.55 18.158 187.092 17.682 187.484C17.21 187.876 16.648 188.072 15.996 188.072ZM16.032 187.172C16.724 187.188 17.262 186.874 17.646 186.23C18.03 185.586 18.224 184.676 18.228 183.5C18.232 182.772 18.162 182.136 18.018 181.592C17.874 181.048 17.644 180.626 17.328 180.326C17.012 180.026 16.596 179.876 16.08 179.876C15.404 179.876 14.864 180.182 14.46 180.794C14.06 181.406 13.856 182.264 13.848 183.368C13.844 184.076 13.918 184.716 14.07 185.288C14.222 185.86 14.458 186.316 14.778 186.656C15.102 186.992 15.52 187.164 16.032 187.172ZM22.5942 183.98C22.1702 183.988 21.8082 183.886 21.5082 183.674C21.2082 183.458 20.9782 183.172 20.8182 182.816C20.6582 182.46 20.5782 182.072 20.5782 181.652C20.5782 181.144 20.6802 180.714 20.8842 180.362C21.0922 180.01 21.3622 179.74 21.6942 179.552C22.0302 179.364 22.3902 179.264 22.7742 179.252C23.2422 179.244 23.6262 179.346 23.9262 179.558C24.2262 179.766 24.4462 180.05 24.5862 180.41C24.7302 180.77 24.8022 181.168 24.8022 181.604C24.8022 182.112 24.6982 182.542 24.4902 182.894C24.2822 183.242 24.0102 183.508 23.6742 183.692C23.3382 183.876 22.9782 183.972 22.5942 183.98ZM23.3982 188L27.2502 179.036H28.1022L24.2502 188H23.3982ZM22.6542 183.32C23.0342 183.312 23.3402 183.162 23.5722 182.87C23.8082 182.578 23.9262 182.168 23.9262 181.64C23.9262 181.128 23.8222 180.71 23.6142 180.386C23.4102 180.062 23.1102 179.904 22.7142 179.912C22.3382 179.916 22.0322 180.07 21.7962 180.374C21.5602 180.678 21.4422 181.092 21.4422 181.616C21.4422 182.096 21.5502 182.502 21.7662 182.834C21.9822 183.162 22.2782 183.324 22.6542 183.32ZM28.7742 187.676C28.3462 187.684 27.9802 187.582 27.6762 187.37C27.3762 187.154 27.1462 186.868 26.9862 186.512C26.8262 186.156 26.7462 185.768 26.7462 185.348C26.7462 184.84 26.8482 184.412 27.0522 184.064C27.2602 183.712 27.5302 183.444 27.8622 183.26C28.1982 183.072 28.5582 182.972 28.9422 182.96C29.4102 182.944 29.7922 183.042 30.0882 183.254C30.3882 183.462 30.6082 183.746 30.7482 184.106C30.8882 184.466 30.9582 184.864 30.9582 185.3C30.9582 185.808 30.8542 186.236 30.6462 186.584C30.4422 186.932 30.1742 187.198 29.8422 187.382C29.5102 187.566 29.1542 187.664 28.7742 187.676ZM28.8222 187.016C29.2022 187.008 29.5062 186.858 29.7342 186.566C29.9662 186.27 30.0822 185.856 30.0822 185.324C30.0822 184.82 29.9802 184.406 29.7762 184.082C29.5762 183.758 29.2782 183.6 28.8822 183.608C28.5062 183.612 28.2002 183.766 27.9642 184.07C27.7282 184.37 27.6102 184.784 27.6102 185.312C27.6102 185.792 27.7182 186.196 27.9342 186.524C28.1502 186.852 28.4462 187.016 28.8222 187.016Z" fill="#3A3A3A"/>
<path d="M7.936 142L7.804 141.556C8.24 141.276 8.672 140.96 9.1 140.608C9.532 140.256 9.936 139.88 10.312 139.48C10.692 139.076 11.028 138.658 11.32 138.226C11.612 137.794 11.84 137.36 12.004 136.924C12.172 136.484 12.256 136.052 12.256 135.628C12.256 135.056 12.104 134.604 11.8 134.272C11.496 133.936 11.044 133.768 10.444 133.768C9.984 133.768 9.544 133.852 9.124 134.02C8.704 134.184 8.392 134.38 8.188 134.608L7.852 134.152C8.036 133.94 8.266 133.748 8.542 133.576C8.818 133.4 9.124 133.26 9.46 133.156C9.8 133.052 10.156 133 10.528 133C11.164 133 11.68 133.116 12.076 133.348C12.476 133.58 12.77 133.892 12.958 134.284C13.146 134.676 13.24 135.112 13.24 135.592C13.24 136.284 13.06 136.956 12.7 137.608C12.344 138.26 11.866 138.886 11.266 139.486C10.67 140.086 10.012 140.652 9.292 141.184L13.504 141.148L13.516 142H7.936ZM16.1362 142.096C16.0402 142.096 15.9202 142.09 15.7762 142.078C15.6322 142.07 15.5082 142.052 15.4042 142.024L15.4162 141.352C15.4962 141.364 15.5702 141.374 15.6382 141.382C15.7062 141.386 15.7882 141.388 15.8842 141.388C16.5922 141.388 17.2222 141.296 17.7742 141.112C18.3302 140.928 18.7662 140.652 19.0822 140.284C19.3982 139.912 19.5562 139.444 19.5562 138.88C19.5562 138.344 19.3982 137.926 19.0822 137.626C18.7702 137.326 18.2562 137.176 17.5402 137.176C17.2762 137.176 16.9822 137.208 16.6582 137.272C16.3342 137.332 16.0122 137.42 15.6922 137.536L15.4522 137.392L15.8122 133.084H20.2042L20.1082 133.924H16.5802L16.2922 136.72C16.5802 136.628 16.8682 136.56 17.1562 136.516C17.4442 136.468 17.7162 136.444 17.9722 136.444C18.8602 136.444 19.5122 136.666 19.9282 137.11C20.3442 137.55 20.5522 138.116 20.5522 138.808C20.5522 139.276 20.4542 139.71 20.2582 140.11C20.0662 140.51 19.7822 140.858 19.4062 141.154C19.0302 141.45 18.5682 141.682 18.0202 141.85C17.4722 142.014 16.8442 142.096 16.1362 142.096ZM23.8989 137.98C23.4749 137.988 23.1129 137.886 22.8129 137.674C22.5129 137.458 22.2829 137.172 22.1229 136.816C21.9629 136.46 21.8829 136.072 21.8829 135.652C21.8829 135.144 21.9849 134.714 22.1889 134.362C22.3969 134.01 22.6669 133.74 22.9989 133.552C23.3349 133.364 23.6949 133.264 24.0789 133.252C24.5469 133.244 24.9309 133.346 25.2309 133.558C25.5309 133.766 25.7509 134.05 25.8909 134.41C26.0349 134.77 26.1069 135.168 26.1069 135.604C26.1069 136.112 26.0029 136.542 25.7949 136.894C25.5869 137.242 25.3149 137.508 24.9789 137.692C24.6429 137.876 24.2829 137.972 23.8989 137.98ZM24.7029 142L28.5549 133.036H29.4069L25.5549 142H24.7029ZM23.9589 137.32C24.3389 137.312 24.6449 137.162 24.8769 136.87C25.1129 136.578 25.2309 136.168 25.2309 135.64C25.2309 135.128 25.1269 134.71 24.9189 134.386C24.7149 134.062 24.4149 133.904 24.0189 133.912C23.6429 133.916 23.3369 134.07 23.1009 134.374C22.8649 134.678 22.7469 135.092 22.7469 135.616C22.7469 136.096 22.8549 136.502 23.0709 136.834C23.2869 137.162 23.5829 137.324 23.9589 137.32ZM30.0789 141.676C29.6509 141.684 29.2849 141.582 28.9809 141.37C28.6809 141.154 28.4509 140.868 28.2909 140.512C28.1309 140.156 28.0509 139.768 28.0509 139.348C28.0509 138.84 28.1529 138.412 28.3569 138.064C28.5649 137.712 28.8349 137.444 29.1669 137.26C29.5029 137.072 29.8629 136.972 30.2469 136.96C30.7149 136.944 31.0969 137.042 31.3929 137.254C31.6929 137.462 31.9129 137.746 32.0529 138.106C32.1929 138.466 32.2629 138.864 32.2629 139.3C32.2629 139.808 32.1589 140.236 31.9509 140.584C31.7469 140.932 31.4789 141.198 31.1469 141.382C30.8149 141.566 30.4589 141.664 30.0789 141.676ZM30.1269 141.016C30.5069 141.008 30.8109 140.858 31.0389 140.566C31.2709 140.27 31.3869 139.856 31.3869 139.324C31.3869 138.82 31.2849 138.406 31.0809 138.082C30.8809 137.758 30.5829 137.6 30.1869 137.608C29.8109 137.612 29.5049 137.766 29.2689 138.07C29.0329 138.37 28.9149 138.784 28.9149 139.312C28.9149 139.792 29.0229 140.196 29.2389 140.524C29.4549 140.852 29.7509 141.016 30.1269 141.016Z" fill="#3A3A3A"/>
<path d="M7.812 99.096C7.716 99.096 7.596 99.09 7.452 99.078C7.308 99.07 7.184 99.052 7.08 99.024L7.092 98.352C7.172 98.364 7.246 98.374 7.314 98.382C7.382 98.386 7.464 98.388 7.56 98.388C8.268 98.388 8.898 98.296 9.45 98.112C10.006 97.928 10.442 97.652 10.758 97.284C11.074 96.912 11.232 96.444 11.232 95.88C11.232 95.344 11.074 94.926 10.758 94.626C10.446 94.326 9.932 94.176 9.216 94.176C8.952 94.176 8.658 94.208 8.334 94.272C8.01 94.332 7.688 94.42 7.368 94.536L7.128 94.392L7.488 90.084H11.88L11.784 90.924H8.256L7.968 93.72C8.256 93.628 8.544 93.56 8.832 93.516C9.12 93.468 9.392 93.444 9.648 93.444C10.536 93.444 11.188 93.666 11.604 94.11C12.02 94.55 12.228 95.116 12.228 95.808C12.228 96.276 12.13 96.71 11.934 97.11C11.742 97.51 11.458 97.858 11.082 98.154C10.706 98.45 10.244 98.682 9.696 98.85C9.148 99.014 8.52 99.096 7.812 99.096ZM17.0507 99.072C16.5147 99.072 16.0487 98.946 15.6527 98.694C15.2607 98.438 14.9347 98.092 14.6747 97.656C14.4187 97.22 14.2307 96.724 14.1107 96.168C13.9907 95.608 13.9347 95.024 13.9427 94.416C13.9547 93.508 14.0987 92.722 14.3747 92.058C14.6507 91.39 15.0307 90.874 15.5147 90.51C15.9987 90.146 16.5587 89.964 17.1947 89.964C17.7427 89.964 18.2107 90.082 18.5987 90.318C18.9907 90.55 19.3087 90.872 19.5527 91.284C19.7967 91.696 19.9747 92.174 20.0867 92.718C20.1987 93.262 20.2507 93.844 20.2427 94.464C20.2347 95.368 20.1007 96.166 19.8407 96.858C19.5807 97.55 19.2127 98.092 18.7367 98.484C18.2647 98.876 17.7027 99.072 17.0507 99.072ZM17.0867 98.172C17.7787 98.188 18.3167 97.874 18.7007 97.23C19.0847 96.586 19.2787 95.676 19.2827 94.5C19.2867 93.772 19.2167 93.136 19.0727 92.592C18.9287 92.048 18.6987 91.626 18.3827 91.326C18.0667 91.026 17.6507 90.876 17.1347 90.876C16.4587 90.876 15.9187 91.182 15.5147 91.794C15.1147 92.406 14.9107 93.264 14.9027 94.368C14.8987 95.076 14.9727 95.716 15.1247 96.288C15.2767 96.86 15.5127 97.316 15.8327 97.656C16.1567 97.992 16.5747 98.164 17.0867 98.172ZM23.6489 94.98C23.2249 94.988 22.8629 94.886 22.5629 94.674C22.2629 94.458 22.0329 94.172 21.8729 93.816C21.7129 93.46 21.6329 93.072 21.6329 92.652C21.6329 92.144 21.7349 91.714 21.9389 91.362C22.1469 91.01 22.4169 90.74 22.7489 90.552C23.0849 90.364 23.4449 90.264 23.8289 90.252C24.2969 90.244 24.6809 90.346 24.9809 90.558C25.2809 90.766 25.5009 91.05 25.6409 91.41C25.7849 91.77 25.8569 92.168 25.8569 92.604C25.8569 93.112 25.7529 93.542 25.5449 93.894C25.3369 94.242 25.0649 94.508 24.7289 94.692C24.3929 94.876 24.0329 94.972 23.6489 94.98ZM24.4529 99L28.3049 90.036H29.1569L25.3049 99H24.4529ZM23.7089 94.32C24.0889 94.312 24.3949 94.162 24.6269 93.87C24.8629 93.578 24.9809 93.168 24.9809 92.64C24.9809 92.128 24.8769 91.71 24.6689 91.386C24.4649 91.062 24.1649 90.904 23.7689 90.912C23.3929 90.916 23.0869 91.07 22.8509 91.374C22.6149 91.678 22.4969 92.092 22.4969 92.616C22.4969 93.096 22.6049 93.502 22.8209 93.834C23.0369 94.162 23.3329 94.324 23.7089 94.32ZM29.8289 98.676C29.4009 98.684 29.0349 98.582 28.7309 98.37C28.4309 98.154 28.2009 97.868 28.0409 97.512C27.8809 97.156 27.8009 96.768 27.8009 96.348C27.8009 95.84 27.9029 95.412 28.1069 95.064C28.3149 94.712 28.5849 94.444 28.9169 94.26C29.2529 94.072 29.6129 93.972 29.9969 93.96C30.4649 93.944 30.8469 94.042 31.1429 94.254C31.4429 94.462 31.6629 94.746 31.8029 95.106C31.9429 95.466 32.0129 95.864 32.0129 96.3C32.0129 96.808 31.9089 97.236 31.7009 97.584C31.4969 97.932 31.2289 98.198 30.8969 98.382C30.5649 98.566 30.2089 98.664 29.8289 98.676ZM29.8769 98.016C30.2569 98.008 30.5609 97.858 30.7889 97.566C31.0209 97.27 31.1369 96.856 31.1369 96.324C31.1369 95.82 31.0349 95.406 30.8309 95.082C30.6309 94.758 30.3329 94.6 29.9369 94.608C29.5609 94.612 29.2549 94.766 29.0189 95.07C28.7829 95.37 28.6649 95.784 28.6649 96.312C28.6649 96.792 28.7729 97.196 28.9889 97.524C29.2049 97.852 29.5009 98.016 29.8769 98.016Z" fill="#3A3A3A"/>
<path d="M9.352 56C9.504 55.68 9.674 55.304 9.862 54.872C10.054 54.44 10.256 53.976 10.468 53.48C10.684 52.98 10.9 52.47 11.116 51.95C11.336 51.43 11.546 50.922 11.746 50.426C11.95 49.926 12.138 49.458 12.31 49.022C12.482 48.586 12.628 48.208 12.748 47.888H7.876L7.888 47.084H13.612L13.828 47.36L10.456 56.012L9.352 56ZM16.2417 56.096C16.1457 56.096 16.0257 56.09 15.8817 56.078C15.7377 56.07 15.6137 56.052 15.5097 56.024L15.5217 55.352C15.6017 55.364 15.6757 55.374 15.7437 55.382C15.8117 55.386 15.8937 55.388 15.9897 55.388C16.6977 55.388 17.3277 55.296 17.8797 55.112C18.4357 54.928 18.8717 54.652 19.1877 54.284C19.5037 53.912 19.6617 53.444 19.6617 52.88C19.6617 52.344 19.5037 51.926 19.1877 51.626C18.8757 51.326 18.3617 51.176 17.6457 51.176C17.3817 51.176 17.0877 51.208 16.7637 51.272C16.4397 51.332 16.1177 51.42 15.7977 51.536L15.5577 51.392L15.9177 47.084H20.3097L20.2137 47.924H16.6857L16.3977 50.72C16.6857 50.628 16.9737 50.56 17.2617 50.516C17.5497 50.468 17.8217 50.444 18.0777 50.444C18.9657 50.444 19.6177 50.666 20.0337 51.11C20.4497 51.55 20.6577 52.116 20.6577 52.808C20.6577 53.276 20.5597 53.71 20.3637 54.11C20.1717 54.51 19.8877 54.858 19.5117 55.154C19.1357 55.45 18.6737 55.682 18.1257 55.85C17.5777 56.014 16.9497 56.096 16.2417 56.096ZM24.0044 51.98C23.5804 51.988 23.2184 51.886 22.9184 51.674C22.6184 51.458 22.3884 51.172 22.2284 50.816C22.0684 50.46 21.9884 50.072 21.9884 49.652C21.9884 49.144 22.0904 48.714 22.2944 48.362C22.5024 48.01 22.7724 47.74 23.1044 47.552C23.4404 47.364 23.8004 47.264 24.1844 47.252C24.6524 47.244 25.0364 47.346 25.3364 47.558C25.6364 47.766 25.8564 48.05 25.9964 48.41C26.1404 48.77 26.2124 49.168 26.2124 49.604C26.2124 50.112 26.1084 50.542 25.9004 50.894C25.6924 51.242 25.4204 51.508 25.0844 51.692C24.7484 51.876 24.3884 51.972 24.0044 51.98ZM24.8084 56L28.6604 47.036H29.5124L25.6604 56H24.8084ZM24.0644 51.32C24.4444 51.312 24.7504 51.162 24.9824 50.87C25.2184 50.578 25.3364 50.168 25.3364 49.64C25.3364 49.128 25.2324 48.71 25.0244 48.386C24.8204 48.062 24.5204 47.904 24.1244 47.912C23.7484 47.916 23.4424 48.07 23.2064 48.374C22.9704 48.678 22.8524 49.092 22.8524 49.616C22.8524 50.096 22.9604 50.502 23.1764 50.834C23.3924 51.162 23.6884 51.324 24.0644 51.32ZM30.1844 55.676C29.7564 55.684 29.3904 55.582 29.0864 55.37C28.7864 55.154 28.5564 54.868 28.3964 54.512C28.2364 54.156 28.1564 53.768 28.1564 53.348C28.1564 52.84 28.2584 52.412 28.4624 52.064C28.6704 51.712 28.9404 51.444 29.2724 51.26C29.6084 51.072 29.9684 50.972 30.3524 50.96C30.8204 50.944 31.2024 51.042 31.4984 51.254C31.7984 51.462 32.0184 51.746 32.1584 52.106C32.2984 52.466 32.3684 52.864 32.3684 53.3C32.3684 53.808 32.2644 54.236 32.0564 54.584C31.8524 54.932 31.5844 55.198 31.2524 55.382C30.9204 55.566 30.5644 55.664 30.1844 55.676ZM30.2324 55.016C30.6124 55.008 30.9164 54.858 31.1444 54.566C31.3764 54.27 31.4924 53.856 31.4924 53.324C31.4924 52.82 31.3904 52.406 31.1864 52.082C30.9864 51.758 30.6884 51.6 30.2924 51.608C29.9164 51.612 29.6104 51.766 29.3744 52.07C29.1384 52.37 29.0204 52.784 29.0204 53.312C29.0204 53.792 29.1284 54.196 29.3444 54.524C29.5604 54.852 29.8564 55.016 30.2324 55.016Z" fill="#3A3A3A"/>
<path d="M2.388 13V5.248C2.144 5.348 1.88 5.446 1.596 5.542C1.312 5.638 1.04 5.716 0.78 5.776L0.66 5.128C0.856 5.068 1.064 4.988 1.284 4.888C1.508 4.784 1.726 4.674 1.938 4.558C2.154 4.438 2.344 4.324 2.508 4.216C2.676 4.108 2.8 4.02 2.88 3.952L3.336 4.084V13H2.388ZM9.26944 13.072C8.73344 13.072 8.26744 12.946 7.87144 12.694C7.47944 12.438 7.15344 12.092 6.89344 11.656C6.63744 11.22 6.44944 10.724 6.32944 10.168C6.20944 9.608 6.15344 9.024 6.16144 8.416C6.17344 7.508 6.31744 6.722 6.59344 6.058C6.86944 5.39 7.24944 4.874 7.73344 4.51C8.21744 4.146 8.77744 3.964 9.41344 3.964C9.96144 3.964 10.4294 4.082 10.8174 4.318C11.2094 4.55 11.5274 4.872 11.7714 5.284C12.0154 5.696 12.1934 6.174 12.3054 6.718C12.4174 7.262 12.4694 7.844 12.4614 8.464C12.4534 9.368 12.3194 10.166 12.0594 10.858C11.7994 11.55 11.4314 12.092 10.9554 12.484C10.4834 12.876 9.92144 13.072 9.26944 13.072ZM9.30544 12.172C9.99744 12.188 10.5354 11.874 10.9194 11.23C11.3034 10.586 11.4974 9.676 11.5014 8.5C11.5054 7.772 11.4354 7.136 11.2914 6.592C11.1474 6.048 10.9174 5.626 10.6014 5.326C10.2854 5.026 9.86944 4.876 9.35344 4.876C8.67744 4.876 8.13744 5.182 7.73344 5.794C7.33344 6.406 7.12944 7.264 7.12144 8.368C7.11744 9.076 7.19144 9.716 7.34344 10.288C7.49544 10.86 7.73144 11.316 8.05144 11.656C8.37544 11.992 8.79344 12.164 9.30544 12.172ZM17.3437 13.072C16.8077 13.072 16.3417 12.946 15.9457 12.694C15.5537 12.438 15.2277 12.092 14.9677 11.656C14.7117 11.22 14.5237 10.724 14.4037 10.168C14.2837 9.608 14.2277 9.024 14.2357 8.416C14.2477 7.508 14.3917 6.722 14.6677 6.058C14.9437 5.39 15.3237 4.874 15.8077 4.51C16.2917 4.146 16.8517 3.964 17.4877 3.964C18.0357 3.964 18.5037 4.082 18.8917 4.318C19.2837 4.55 19.6017 4.872 19.8457 5.284C20.0897 5.696 20.2677 6.174 20.3797 6.718C20.4917 7.262 20.5437 7.844 20.5357 8.464C20.5277 9.368 20.3937 10.166 20.1337 10.858C19.8737 11.55 19.5057 12.092 19.0297 12.484C18.5577 12.876 17.9957 13.072 17.3437 13.072ZM17.3797 12.172C18.0717 12.188 18.6097 11.874 18.9937 11.23C19.3777 10.586 19.5717 9.676 19.5757 8.5C19.5797 7.772 19.5097 7.136 19.3657 6.592C19.2217 6.048 18.9917 5.626 18.6757 5.326C18.3597 5.026 17.9437 4.876 17.4277 4.876C16.7517 4.876 16.2117 5.182 15.8077 5.794C15.4077 6.406 15.2037 7.264 15.1957 8.368C15.1917 9.076 15.2657 9.716 15.4177 10.288C15.5697 10.86 15.8057 11.316 16.1257 11.656C16.4497 11.992 16.8677 12.164 17.3797 12.172ZM23.9419 8.98C23.5179 8.988 23.1559 8.886 22.8559 8.674C22.5559 8.458 22.3259 8.172 22.1659 7.816C22.0059 7.46 21.9259 7.072 21.9259 6.652C21.9259 6.144 22.0279 5.714 22.2319 5.362C22.4399 5.01 22.7099 4.74 23.0419 4.552C23.3779 4.364 23.7379 4.264 24.1219 4.252C24.5899 4.244 24.9739 4.346 25.2739 4.558C25.5739 4.766 25.7939 5.05 25.9339 5.41C26.0779 5.77 26.1499 6.168 26.1499 6.604C26.1499 7.112 26.0459 7.542 25.8379 7.894C25.6299 8.242 25.3579 8.508 25.0219 8.692C24.6859 8.876 24.3259 8.972 23.9419 8.98ZM24.7459 13L28.5979 4.036H29.4499L25.5979 13H24.7459ZM24.0019 8.32C24.3819 8.312 24.6879 8.162 24.9199 7.87C25.1559 7.578 25.2739 7.168 25.2739 6.64C25.2739 6.128 25.1699 5.71 24.9619 5.386C24.7579 5.062 24.4579 4.904 24.0619 4.912C23.6859 4.916 23.3799 5.07 23.1439 5.374C22.9079 5.678 22.7899 6.092 22.7899 6.616C22.7899 7.096 22.8979 7.502 23.1139 7.834C23.3299 8.162 23.6259 8.324 24.0019 8.32ZM30.1219 12.676C29.6939 12.684 29.3279 12.582 29.0239 12.37C28.7239 12.154 28.4939 11.868 28.3339 11.512C28.1739 11.156 28.0939 10.768 28.0939 10.348C28.0939 9.84 28.1959 9.412 28.3999 9.064C28.6079 8.712 28.8779 8.444 29.2099 8.26C29.5459 8.072 29.9059 7.972 30.2899 7.96C30.7579 7.944 31.1399 8.042 31.4359 8.254C31.7359 8.462 31.9559 8.746 32.0959 9.106C32.2359 9.466 32.3059 9.864 32.3059 10.3C32.3059 10.808 32.2019 11.236 31.9939 11.584C31.7899 11.932 31.5219 12.198 31.1899 12.382C30.8579 12.566 30.5019 12.664 30.1219 12.676ZM30.1699 12.016C30.5499 12.008 30.8539 11.858 31.0819 11.566C31.3139 11.27 31.4299 10.856 31.4299 10.324C31.4299 9.82 31.3279 9.406 31.1239 9.082C30.9239 8.758 30.6259 8.6 30.2299 8.608C29.8539 8.612 29.5479 8.766 29.3119 9.07C29.0759 9.37 28.9579 9.784 28.9579 10.312C28.9579 10.792 29.0659 11.196 29.2819 11.524C29.4979 11.852 29.7939 12.016 30.1699 12.016Z" fill="#3A3A3A"/>
</svg>
